<svg xmlns="http://www.w3.org/2000/svg" xmlns:xlink="http://www.w3.org/1999/xlink" version="1.2" id="Layer_1" x="0px" y="0px" viewBox="0 0 1008 1152" xml:space="preserve"> <g id="Bitch"> <text id="B" transform="matrix(1 0 0 1 9.2925 760.9229)" font-family="'Gastromond-Regular'" font-size="260.6648px" svgjs:data="{&quot;leading&quot;:&quot;1.3&quot;}">BITCH</text> </g> <g id="Kicks"> <text id="BG" transform="matrix(1 0 0 1 108.5977 565.811)" font-family="'Almaq-Rough'" font-size="335.7529px" svgjs:data="{&quot;leading&quot;:&quot;1.3&quot;}">KICKS</text> </g> <g id="Watch"> <text transform="matrix(1 0 0 1 78.2881 348.7822)" fill="#5E5E5E" font-family="'Shlop-Regular'" font-size="266.7367px" svgjs:data="{&quot;leading&quot;:&quot;1.3&quot;}">W</text> <text transform="matrix(1 0 0 1 211.123 348.7822)" fill="#5E5E5E" font-family="'Shlop-Regular'" font-size="266.7367px" svgjs:data="{&quot;leading&quot;:&quot;1.3&quot;}">A</text> <text transform="matrix(1 0 0 1 298.6138 348.7822)" fill="#5E5E5E" font-family="'Shlop-Regular'" font-size="266.7367px" svgjs:data="{&quot;leading&quot;:&quot;1.3&quot;}">T</text> <text transform="matrix(1 0 0 1 380.2349 348.7822)" fill="#5E5E5E" font-family="'Shlop-Regular'" font-size="266.7367px" svgjs:data="{&quot;leading&quot;:&quot;1.3&quot;}">C</text> <text transform="matrix(1 0 0 1 485.0601 348.7822)" fill="#5E5E5E" font-family="'Shlop-Regular'" font-size="266.7367px" svgjs:data="{&quot;leading&quot;:&quot;1.3&quot;}">H</text> <text transform="matrix(1 0 0 1 595.7539 348.7822)" fill="#5E5E5E" font-family="'Shlop-Regular'" font-size="266.7367px" svgjs:data="{&quot;leading&quot;:&quot;1.3&quot;}"> </text> <text transform="matrix(1 0 0 1 647.2324 348.7822)" fill="#5E5E5E" font-family="'Shlop-Regular'" font-size="266.7367px" svgjs:data="{&quot;leading&quot;:&quot;1.3&quot;}">T</text> <text transform="matrix(1 0 0 1 728.8535 348.7822)" fill="#5E5E5E" font-family="'Shlop-Regular'" font-size="266.7367px" svgjs:data="{&quot;leading&quot;:&quot;1.3&quot;}">H</text> <text transform="matrix(1 0 0 1 839.5469 348.7822)" fill="#5E5E5E" font-family="'Shlop-Regular'" font-size="266.7367px" svgjs:data="{&quot;leading&quot;:&quot;1.3&quot;}">E</text> <text transform="matrix(1 0 0 1 932.6387 348.7822)" fill="#5E5E5E" font-family="'Shlop-Regular'" font-size="266.7367px" svgjs:data="{&quot;leading&quot;:&quot;1.3&quot;}"> </text> <text transform="matrix(1 0 0 1 984.1162 348.7822)" fill="#5E5E5E" font-family="'Shlop-Regular'" font-size="266.7367px" svgjs:data="{&quot;leading&quot;:&quot;1.3&quot;}"> </text> </g> </svg>