<?xml version="1.0" encoding="UTF-8"?> <!-- Generator: Adobe Illustrator 24.0.2, SVG Export Plug-In . SVG Version: 6.00 Build 0) --> <svg xmlns="http://www.w3.org/2000/svg" xmlns:xlink="http://www.w3.org/1999/xlink" version="1.2" id="Layer_1" x="0px" y="0px" viewBox="0 0 1008 1152" xml:space="preserve"> <g id="Bitch"> <path id="BitchPath" d="M142.8,762.7c-18,0-43.5-1.8-59.2-1.8H71.9c-34.7,0-49.8,1.8-55.8,1.8c-1.6,0-2.1-0.8-2.1-5.5 s0.5-5.5,2.1-5.7l11.5-1.8c2.6-0.5,3.1-1,3.1-3.6v-158c0-2.6-0.5-3.1-3.1-3.6l-11.5-1.8c-1.6-0.3-2.1-1-2.1-5.7s0.5-5.5,2.1-5.5 c6,0,22.7,1.8,57.3,1.8h10.2c18.2,0,34.9-1.8,55.3-1.8c39.1,0,60.7,18,60.7,40.9c0,21.1-14.6,38.6-43.8,43.5v1 c35.5,2.6,57.9,22.4,57.9,52.9C213.7,743.7,185.2,762.7,142.8,762.7z M102.4,583.7h-1c-2.6,0-3.1,0.5-3.1,3.1v71.9h6 c15.6,0,24.2-14.9,24.2-33.4C128.4,601.9,119.3,583.7,102.4,583.7z M102.1,670.5h-3.9v60.5c0,7.8,1.6,12,4.7,15.1 c2.6,2.6,8.3,4.4,13.8,4.4c14.6,0,22.9-11.2,22.9-30.5C139.6,689.2,120.1,670.5,102.1,670.5z M329.1,762.7c-6,0-26.6-1.8-48.2-1.8 s-42.5,1.8-48.5,1.8c-1.6,0-2.1-0.8-2.1-5.5s0.5-5.5,2.1-5.7l11.5-1.8c2.6-0.5,3.1-1,3.1-3.6v-158c0-2.6-0.5-3.1-3.1-3.6l-11.5-1.8 c-1.6-0.3-2.1-1-2.1-5.7s0.5-5.5,2.1-5.5c6,0,26.6,1.8,48.2,1.8s42.5-1.8,48.5-1.8c1.6,0,2.1,0.8,2.1,5.5s-0.5,5.5-2.1,5.7 l-11.5,1.8c-2.6,0.5-3.1,1-3.1,3.6v158c0,2.6,0.5,3.1,3.1,3.6l11.5,1.8c1.6,0.3,2.1,1,2.1,5.7C331.2,762,330.7,762.7,329.1,762.7z M497.5,762.7c-6,0-26.6-1.8-53.4-1.8c-21.6,0-47.7,1.8-53.7,1.8c-1.6,0-2.1-0.8-2.1-5.5s0.5-5.5,2.1-5.7l16.7-1.8 c2.6-0.3,3.1-1,3.1-3.6V587.3c0-2.6-0.5-3.1-3.1-3.1h-1c-3.9,0-14.3,1-24.8,3.4c-5.2,1-6.3,2.1-9.1,6.8 c-8.9,15.4-14.1,24.2-25.3,43.3c-1.3,2.1-1.6,2.6-3.6,2.6c-4.2,0-10.9-2.6-10.9-4.7c0-12.3,11.5-56.8,16.7-76.1 c0.8-2.6,6-4.2,9.4-4.2c1.6,0,2.1,0.8,2.9,2.1c2.6,4.2,5.2,8.3,7.8,12c1.6,2.1,1.8,2.3,3.9,2.6c15.1,1,21.6,1.3,33.1,1.3h75.9 c21.9,0,32.8-0.3,48-1.3c2.1-0.3,2.3-0.5,3.9-2.6c2.6-3.6,5.2-7.8,7.8-12c0.8-1.3,1.3-2.1,2.9-2.1c3.4,0,9.4,1.6,9.4,4.2 c0,19.3-1.3,55.5-4.2,78.2c-0.3,2.1-1,2.6-7,2.6s-6.8-0.5-7.6-2.6c-7-20.3-8.9-27.9-15.4-43.3c-2.1-5-3.9-5.7-9.1-6.8 c-10.4-2.3-24.8-3.4-28.7-3.4h-1c-2.6,0-3.1,0.5-3.1,3.1v158.7c0,2.6,0.5,3.4,3.1,3.6l16.7,1.8c1.6,0.3,2.1,1,2.1,5.7 C499.6,762,499.1,762.7,497.5,762.7z M689.6,570.1c19.8,0,37.3,1,54.2,3.9c5.2,0.8,5.7,1.6,6.5,6.8c2.3,15.6,4.2,34.9,4.2,51.1 c0,2.1-1,2.6-7,2.6s-6.8-0.5-7.6-2.6c-5.2-12.8-13-26.8-24-37.8c-8.9-8.9-18-12.5-33.6-12.5c-26.3,0-48,17.5-48,58.6 c0,43,14.1,85.8,32.6,104.3c6.8,6.8,13.6,9.9,22.4,9.9c9.4,0,18.2-3.9,27.6-13.3c10.9-10.9,20.9-31,26.3-46.7 c0.8-2.1,1.6-2.6,7.6-2.6s7,0.5,7,2.6c0,8.1-3.9,37.8-7.3,60c-0.8,5.2-1.6,6-6.8,6.8c-18.2,2.9-39.1,3.9-63.1,3.9 c-70.6,0-119.1-36.2-119.1-96.2C561.6,605.6,622.6,570.1,689.6,570.1z M996.4,751.5c1.6,0.3,2.1,1,2.1,5.7s-0.5,5.5-2.1,5.5 c-6,0-26.6-1.8-48.2-1.8c-21.6,0-42.5,1.8-48.5,1.8c-1.6,0-2.1-0.8-2.1-5.5s0.5-5.5,2.1-5.7l11.5-1.8c2.6-0.5,3.1-1,3.1-3.6v-76.4 h-57.6v76.4c0,2.6,0.5,3.1,3.1,3.6l11.5,1.8c1.6,0.3,2.1,1,2.1,5.7s-0.5,5.5-2.1,5.5c-6,0-26.6-1.8-48.2-1.8 c-21.6,0-42.5,1.8-48.5,1.8c-1.6,0-2.1-0.8-2.1-5.5s0.5-5.5,2.1-5.7l11.5-1.8c2.6-0.5,3.1-1,3.1-3.6v-158c0-2.6-0.5-3.1-3.1-3.6 l-11.5-1.8c-1.6-0.3-2.1-1-2.1-5.7s0.5-5.5,2.1-5.5c6,0,26.6,1.8,48.2,1.8c21.6,0,42.5-1.8,48.5-1.8c1.6,0,2.1,0.8,2.1,5.5 s-0.5,5.5-2.1,5.7l-11.5,1.8c-2.6,0.5-3.1,1-3.1,3.6v68.6h57.6v-68.6c0-2.6-0.5-3.1-3.1-3.6l-11.5-1.8c-1.6-0.3-2.1-1-2.1-5.7 s0.5-5.5,2.1-5.5c6,0,26.6,1.8,48.2,1.8c21.6,0,42.5-1.8,48.5-1.8c1.6,0,2.1,0.8,2.1,5.5s-0.5,5.5-2.1,5.7l-11.5,1.8 c-2.6,0.5-3.1,1-3.1,3.6v158c0,2.6,0.5,3.1,3.1,3.6L996.4,751.5L996.4,751.5z"></path> </g> <g id="Kicks"> <path id="KicksPath" d="M289.6,345.6c0,1.8,0.2,2.9,0.7,3.4l-2,2.7c-1.3,0-2.5,0.3-3.4,1c-0.9-1.1-1.5-2.5-1.7-4.2 c-0.2-1.7-1.3-2.5-3.4-2.5c0.9,0.9,1.3,1.8,1.3,2.9c0,1-0.2,2-0.7,3c-0.5,1-0.8,2-1.2,3c-0.3,1-0.2,2,0.5,2.9 c-1.8-0.4-2.6-1.7-2.5-3.7c0.1-2-0.3-3.7-1.2-5c-2.7-0.7-6-1.4-9.9-2.2c-3.9-0.8-7.1-0.1-9.6,2.2c5.8,1.3,9.5,3.5,11.1,6.4 c1.1-1.1,1.3-2.2,0.7-3.2s-0.1-2.1,1.7-3.2c1.8,1.8,3.3,4.3,4.5,7.6c1.2,3.2,2.7,5.9,4.5,7.9l-15.8,21.8c-0.7-2.5-1.7-4.7-3-6.7 c0.7,3.8,1,6.9,1,9.4l-42,58.4l4.7,7.4l-0.3,0.3h0.3l52.4,85.6c-1.6,4.3-3.3,8.3-5.2,12.3c-1.9,3.9-3.6,7.8-5.2,11.6l-5.4-0.3 l-0.3-0.7c-1.1,0.5-2.5,0.5-4,0c-1.6-0.4-2.6-0.2-3,0.7l-21.8-0.3L220.7,546c0.4-0.4,1.1-0.7,2-0.7c1.1,0,1.5,0.8,1,2.4 c2.2-0.9,4.1-1.9,5.7-3c1.6-1.1,2.9-2.6,4-4.4c3.1-0.4,5.4-2,6.9-4.5c1.5-2.6,1.6-5.1,0.5-7.6c1.1,0.9,2.2,1.6,3.4,2.2 c1.1,0.6,2.9,0.6,5.4,0.2c-0.2-1.8,0.2-3,1.2-3.7s1.4-1.9,1.2-3.7c-0.7,0-1.6,0.3-2.7,0.8c-1.1,0.6-2.1,1-3,1.3 c-0.9,0.3-1.6,0.4-2,0.2c-0.5-0.2-0.3-1,0.3-2.4c-2-0.4-3,0-3,1.3c0,1.3-0.6,2.1-1.7,2.4c-0.7-0.7-1-1.2-1-1.5c0-0.3,0.2-0.7,0.5-1 c0.3-0.3,0.7-0.8,1.2-1.3c0.4-0.6,0.6-1.3,0.3-2.2c-1.8-0.2-2.8,0-3,0.7c-0.2,0.7-0.3,1.5-0.3,2.4c0,0.9-0.3,1.6-0.8,2 c-0.6,0.5-2,0.5-4.2,0c-0.7,0.7-1.1,1.6-1.3,2.9c-0.2,1.2-0.6,2.3-1,3.2c1.1,0.7,2.6,1,4.5,0.8c1.9-0.1,3.2,0.4,3.9,1.5 c0.2,1.3-0.7,1.8-2.7,1.5c-2-0.3-3.1-0.4-3.4-0.2c-0.9,0.7-1.3,1.8-1.2,3.4c0.1,1.6,0.1,2.5-0.2,2.7c-0.7,0.7-1.6,1.1-2.7,1.2 c-1.1,0.1-2.2,0.2-3.4,0.2c-1.1,0-2.1,0.1-3,0.3c-0.9,0.2-1.5,0.8-1.7,1.7c0-1.1-0.3-1.9-0.8-2.4c-0.6-0.4-0.7-1.2-0.5-2.4 c1.3,0.5,2.2,0.5,2.7,0c0.4-0.4,0.8-1.1,1-1.8c0.2-0.8,0.6-1.4,1-1.8c0.4-0.4,1.3-0.4,2.7,0c0.2,1.1-0.2,2.3-1.2,3.5 c-1,1.2-0.6,2.1,1.2,2.5c0.2-1.6,0.8-2.7,1.8-3.4s1.6-1.9,1.8-3.7c-3.1-1.8-5.7-2.1-7.7-0.8c-2,1.2-3.9,2.7-5.7,4.5l-7.4-12.4 c0.9,0.2,1.5,0.6,1.7,1c0.2,0.5,0.9,0.6,2,0.3c0-1.8-0.9-3-2.7-3.7c0.2,0.5-0.1,1.1-1,2l-4-6c0.2-0.2,0.3-0.6,0.3-1 c-0.5,0-0.8-0.1-1-0.3l-0.3-0.3c0-0.4-0.2-0.9-0.7-1.3l-13.8-22.8c0.9-0.2,1.2-1.2,1-3c-1.3,0-2.2,0.2-2.7,0.7l-2-3.7 c0.4-1.3,1.2-2.4,2.4-3c0,0.9-0.1,1.6-0.3,2.2c-0.2,0.6-0.5,1.1-0.7,1.5c1.6,0.2,2.8,0.2,3.7-0.2c0.9-0.3,1.8-0.7,2.7-1.2 c0.9-0.4,1.8-0.8,2.9-1.2s2.3-0.4,3.9-0.2c1.6,4.3,3.7,7.7,6.5,10.4c2.8,2.7,5,5.8,6.5,9.4c-0.7,1.8-0.8,4.6-0.5,8.4 c0.3,3.8,1.5,6.3,3.5,7.4c0.7-2.7,0.7-5.2,0.2-7.6c-0.6-2.4-1.6-5.7-3.2-9.9c-1.6-4.2-2.2-7.4-2-9.4c-0.9-0.2-1.8-0.3-2.9-0.2 c-1,0.1-1.6-0.3-1.8-1.2c0-1.3,0.2-2.9,0.7-4.5c0.4-1.7,0.8-3.4,1-5c0.2-1.7,0.2-3.4-0.2-5.2c-0.3-1.8-1.3-3.4-2.9-4.7 c-0.5,1.6-0.4,3.5,0.2,5.7c0.6,2.2,0.1,3.6-1.5,4c-2.2-3.6-3.1-7.2-2.5-10.7c0.6-3.6,0.6-6.8,0.2-9.7c-1.1,0-2.4,0.6-3.7,1.7 c-1.3,1.1-2.4,1.8-3.2,2c-0.8,0.2-1.7-0.2-2.9-1.3c-0.9,0.7-1.1,1.6-0.7,2.9c0.4,1.2,1,2.4,1.7,3.4c0.7,1,1.1,1.8,1.2,2.4 c0.1,0.6-0.6,0.5-2.2-0.2c-0.5,2.2,0,3.6,1.3,4c1.3,0.5,2.6,1.1,3.7,2c-2,2.5-6.2,2.9-12.4,1.3c0,1.8-0.1,3.1-0.3,4l-7.4-12.1 l-0.7,39.3v8.4c-0.5-0.4-0.8-1-1-1.7c-0.2-0.7-0.7-1.1-1.3-1.3c-1.6,1.8-3,3.5-4.2,5c-1.2,1.6-2.7,3.1-4.5,4.7 c0.7-1.1,0.9-2.2,0.7-3.4c-0.2-1.1-0.8-2-1.7-2.7c0,1.1-0.6,1.8-1.7,2c-1.1,0.2-1.5,1.1-1,2.7c0.2,1.1,0.8,1.7,1.8,1.7 s1.3,0.7,0.8,2c-0.7,0-1.2,0.2-1.5,0.5c-0.3,0.3-0.7,0.6-1.2,0.8c-0.9-2-1.7-2.9-2.4-2.5s-1.3,1.1-2,2.2c-0.7,1.1-1.4,2.3-2.2,3.5 c-0.8,1.2-1.8,1.7-3.2,1.5c0.2,3.8,0.3,6.8,0.2,8.9c-0.1,2.1-0.2,4.1-0.2,5.9c2.5-0.9,4.1-2.6,4.9-5c0.8-2.5,1.6-4.9,2.5-7.4 c3.6-0.9,6-2.9,7.4-5.9c1.3-3,3.4-5.4,6-7.2c-0.5,2.9,0.3,4.5,2.4,4.7c0.4-1.8,0.3-3.1-0.5-4c-0.8-0.9-1-2.4-0.5-4.4 c0.4-0.4,1.2-0.3,2.4,0.3l-0.3,38.9l-5,1.3l-21.5-0.3v-0.3h-2.4v0.3l-17.1-0.3c-0.5-1.8-0.9-2.1-1.3-1v1h-4l1-51h2v-2.4h-2l1-45 c1.8,0.5,3.5,0.6,5.2,0.3c1.7-0.2,2.7-1.6,3.2-4c-1.3,0.7-2.7,1.2-4.2,1.5c-1.5,0.3-2.9,0.8-4.2,1.5l1-67.2c0.7-0.2,1-0.8,1-1.7 h-0.7v-6.7c1.8-0.9,3.7-2,5.7-3.4c2-1.3,4-2.5,6-3.4c0.4-0.2,1.1-0.2,1.8,0c0.8,0.2,1.5,0.3,2.2,0.3c0.7,0,1.2-0.2,1.5-0.5 c0.3-0.3,0.5-1.1,0.5-2.2c-3.1,0.7-6.3,1.4-9.4,2.2c-3.1,0.8-5.9,1.8-8.4,3.2l0.7-33.6c0.7,0.2,1.2,0.2,1.7,0 c0.4-0.2,0.8-0.5,1.2-0.8c0.3-0.3,0.8-0.6,1.3-0.7c0.6-0.1,1.3-0.1,2.2,0.2c-0.5-2-0.1-3.6,1-4.7c-1.1-0.2-2.2-0.4-3.4-0.5 c-1.1-0.1-2.1-0.4-3-0.8h47.7l2,5l-1.7,77.9l14.8-20.8c0.7,5.2,1.3,10,1.8,14.6c0.6,4.6,1.5,8.7,2.9,12.3c-0.2-1.8,0.6-3,2.4-3.7 c0.4,1.1,0.6,2.1,0.3,3c-0.2,0.9-0.5,1.7-0.8,2.4s-0.5,1.3-0.5,2c0,0.7,0.3,1.1,1,1.3c1.1-1.3,2.1-2.7,3-4.2 c0.9-1.5,1.1-3.7,0.7-6.9c-2,0.5-3.4,0.2-4.2-0.7c-0.8-0.9-1.4-1.9-1.8-3c0.7-0.7,0.9-1.9,0.7-3.7c-0.2-1.8-0.5-3.6-0.7-5.5 c-0.2-1.9-0.4-3.7-0.5-5.4c-0.1-1.7,0.4-2.9,1.5-3.5c1.1,2.9,1.8,6.3,2,10.1c0.2,3.8,1.6,6.5,4,8.1c1.1-5.4,0.8-10.4-0.8-14.9 c-1.7-4.6-2.9-8.9-3.5-12.9l6-8.4l2,1c-0.2-0.4-0.4-0.8-0.5-1.2c-0.1-0.3-0.3-0.7-0.5-1.2l25.5-36.3c0.7-1.1,1.5-1.9,2.4-2.4 c0.9-0.4,1.9-0.9,3-1.3L289.6,345.6z M132.4,558.8c0.4-1.1,1.1-2,2-2.5c0.9-0.6,1.1-1.8,0.7-3.9c-2,2.2-3.5,3.1-4.5,2.7 c-1-0.4-2.4-0.4-4.2,0c2,0,3.2,0.5,3.5,1.5C130.3,557.6,131.1,558.3,132.4,558.8z M130.1,394.2c1.8-0.4,3-1.4,3.5-2.9 c0.6-1.5,1.4-2.5,2.5-3.2c-3.4-0.2-5.8,0.9-7.4,3.4c0.4,0.2,1,0.4,1.7,0.5c0.7,0.1,1,0.4,1,0.8 C130.3,392.9,129.9,393.3,130.1,394.2z M137.5,463.7c2.5-0.4,4-1.3,4.7-2.7c-0.7,0-1.1-0.3-1.2-1c-0.1-0.7-0.5-1.1-1.2-1.3 c0,1.1-0.6,1.6-1.7,1.3c-1.1-0.2-1.8,0.1-2,1C137,461.3,137.5,462.2,137.5,463.7z M139.8,468.4c0.2-0.9,0.2-1.8-0.2-2.7 c-0.3-0.9-0.7-0.8-1.2,0.3c-0.2,0.9-0.1,1.8,0.3,2.7C139.3,469.7,139.6,469.6,139.8,468.4z M143.5,451.3c-0.2-1.1-0.2-2.1,0-3 c0.2-0.9,0.4-1.6,0.5-2.2c0.1-0.6,0.1-1.1-0.2-1.7c-0.2-0.6-0.8-1.1-1.7-1.5c-1.3,1.6-1.3,3.1,0,4.7c-0.7,0.2-1.3,0.5-1.8,0.7 c-0.6,0.2-0.7,0.9-0.5,2C140.9,450.1,142.2,450.4,143.5,451.3z M144.9,460c1.8-0.9,2.9-2.5,3.2-4.7c0.3-2.2,1.3-3.9,2.9-5h-5 c-0.5,1.3-0.8,2.7-1.2,4.2C144.4,456,144.4,457.8,144.9,460z M155.6,466.1c1.6-3.1,1.6-4.8,0-5c0,1.1-0.5,1.8-1.5,2 c-1,0.2-1.7,0.7-2,1.3s0.1,1.2,1.2,1.7c0.2-0.9,0.6-1.2,1-1C154.7,465.3,155.2,465.6,155.6,466.1z M155.6,551.4 c-0.2,1.1,0.1,1.9,0.8,2.4c0.8,0.5,1.7,0.6,2.7,0.3c1-0.2,1.8-0.7,2.4-1.3c0.6-0.7,0.6-1.6,0.2-2.7c-1.8-0.4-2.9-0.3-3.2,0.5 C158.1,551.3,157.2,551.6,155.6,551.4z M158,467.1c1.1,0.9,1.9,1.2,2.4,1c0.4-0.2,0.7-0.6,0.7-1.2c0-0.6-0.3-0.9-0.8-1.2 C159.6,465.5,158.8,466,158,467.1z M159.3,562.1c2.2,0.2,3.3-0.4,3.2-1.8c-0.1-1.5-0.4-2.4-0.8-2.9c0,1.1-0.5,1.8-1.5,2 C159.1,559.7,158.8,560.6,159.3,562.1z M170.4,460c0.9,1.6,2.1,2.8,3.5,3.7c1.5,0.9,3.5,1.2,6.2,1c0.2-2.5-0.6-3.6-2.4-3.4 c-1.8,0.2-3.5,0.6-5,1c0.2-2.5-0.2-4.5-1.3-6c-4.9,0-8.5,1.2-10.7,3.7c1.3-0.2,2.5-0.2,3.5,0.2c1,0.3,1.8,0.7,2.5,1 c0.7,0.3,1.3,0.5,1.8,0.5C169.1,461.7,169.7,461.2,170.4,460z M170.4,407.7c-0.9,1.1-1.2,1.9-1,2.4c0.2,0.5,0.6,0.7,1.2,0.7 c0.6,0,0.9-0.3,1.2-0.8C171.9,409.3,171.5,408.6,170.4,407.7z M172.4,509.7c0.4,0,0.9-0.3,1.5-0.8c0.6-0.6,1.1-1.2,1.5-1.8 c0.4-0.7,0.7-1.1,0.7-1.3c0-0.2-0.5,0-1.3,0.7c0,0.5-0.3,0.7-1,0.8c-0.7,0.1-1.3,0.3-1.8,0.5c-0.6,0.2-0.9,0.5-1,0.8 C170.8,508.9,171.3,509.3,172.4,509.7z M171.4,352.6c-0.2,0.5-0.2,1,0.2,1.7s0.7,1,1.2,1c0.2,0,0.4-0.3,0.5-1 c0.1-0.7,0.1-1.3,0-1.8c-0.1-0.6-0.3-0.9-0.7-1C172.2,351.3,171.8,351.7,171.4,352.6z M175.1,360c-0.7,0.2-1.1,0.1-1.2-0.5 c-0.1-0.6-0.2-1.1-0.2-1.7c0-0.6-0.1-1.1-0.3-1.5c-0.2-0.4-0.9-0.4-2,0c-0.2,1.1,0.3,2.4,1.5,3.7 C174.1,361.3,174.9,361.3,175.1,360z M180.1,451.3c-1.1,0.5-2.3,0.7-3.5,0.8c-1.2,0.1-2.1,0.7-2.5,1.8c1.6,0,2.9-0.1,4-0.3 C179.2,453.4,179.9,452.7,180.1,451.3z M181.1,472.1h-2.4v2.4h2.4V472.1z M183.8,461.1c2.9,0.2,4.9-0.6,6-2.4 c-0.7,0.2-1.4,0.3-2.2,0.2c-0.8-0.1-1.5-0.2-2.2-0.2c-0.7,0-1.2,0.2-1.7,0.5C183.4,459.5,183.4,460.2,183.8,461.1z M192.2,454 c1.1-0.2,2-0.2,2.7,0.2c0.7,0.3,1.3,0.8,2,1.3c0.7,0.6,1.5,1.1,2.4,1.5c0.9,0.5,2.2,0.6,4,0.3c0.2-0.4,0.5-1.3,0.8-2.5 c0.3-1.2,0.5-2.6,0.5-4c0-1.5-0.1-2.8-0.2-4c-0.1-1.2-0.5-2.2-1.2-2.9c-0.7,1.8-1,3-1,3.7s0.3,1.9,1,3.7c-1.1,0.7-2.3,1-3.5,0.8 c-1.2-0.1-2.4-0.2-3.4-0.2s-1.9,0.1-2.7,0.3C192.9,452.6,192.4,453.1,192.2,454z M194.6,450.3c0.9,0.5,1.6,0.4,2-0.2 c0.4-0.6,0.7-1.2,0.7-1.8c0-0.7-0.2-1.2-0.7-1.7c-0.5-0.4-1.1-0.4-2,0V450.3z M195.9,470.8c0.7-1.1,1.1-1.7,1.3-1.7 c0.2,0,0.3,0.2,0.2,0.7c-0.1,0.5-0.3,1-0.7,1.5c-0.3,0.6-0.6,0.8-0.8,0.8c-1.1-0.2-1.4-0.4-0.8-0.7 C195.6,471.2,195.9,471,195.9,470.8z M208,458.7c-1.3-1.3-2.7-1.5-4-0.5c-1.3,1-3.2,1.2-5.7,0.5c0.2,1.8,1.7,2.8,4.4,3 c2.7,0.2,4.5,0,5.4-0.7V458.7z M207,398.9c-0.2,0.9-0.6,1.6-1,2.2c-0.5,0.6-0.1,1.1,1,1.5c0-0.7,0.3-1.3,0.8-2 C208.4,399.9,208.1,399.4,207,398.9z M216.7,461.1c0.2-0.9,0.6-1.6,1-2.2c0.4-0.6,0.4-1.4,0-2.5c-2.2-0.4-3.3,0.1-3.2,1.7 C214.6,459.6,215.4,460.6,216.7,461.1z M215.4,454c0.4,0.7,0.9,1,1.3,0.8c0.4-0.1,0.8-0.4,1-0.8c0.2-0.4,0.3-0.9,0.2-1.5 c-0.1-0.6-0.5-0.9-1.2-1.2c0,0.7-0.2,1.2-0.5,1.5C215.9,453.2,215.6,453.6,215.4,454z M228.8,384.5c0.2-0.9,0.2-1.8-0.2-2.9 c-0.3-1-0.7-0.9-1.2,0.2c-0.2,0.9-0.1,1.8,0.3,2.9C228.2,385.7,228.6,385.6,228.8,384.5z M244.6,516.1c0,0.9-0.5,1.3-1.5,1.3 c-1,0-1.3,0.7-0.8,2c1.3-0.4,2.2-0.4,2.5,0c0.3,0.5,0.6,1,0.8,1.7c0.2,0.7,0.4,1.3,0.7,1.8c0.2,0.6,0.9,0.6,2,0.2 c1.1-1.1,1.1-2.4-0.2-3.7C246.9,518.1,245.7,517,244.6,516.1z M254.3,365c-0.9-2.2-1.3-5.1-1.3-8.7c0-3.6,0.9-6,2.7-7.4 c-1.8,0-3.1,0.8-3.9,2.4c-0.8,1.6-1.2,3.3-1.2,5.2c0,1.9,0.3,3.8,1,5.5C252.3,363.8,253.2,364.8,254.3,365z M256.7,509.7 c-0.2,0.9-0.6,1.6-1,2.2c-0.5,0.6-0.5,1.5,0,2.9c0.9,0.5,1.6,0.5,2,0c0.4-0.4,0.7-1.1,0.7-1.8c0-0.8-0.1-1.5-0.3-2 C257.8,510.4,257.3,510,256.7,509.7z M258,352.6c-0.5,0.9-0.4,1.6,0.2,2c0.6,0.5,1.3,0.7,2.2,0.8c0.9,0.1,1.7,0,2.5-0.3 c0.8-0.3,1.2-0.7,1.2-1.2c-1.6,0.2-2.5-0.1-2.9-0.8C260.9,352.3,259.8,352.2,258,352.6z M265.4,528.2c0.2,1.6,0,2.8-0.7,3.7 c-0.7,0.9-1.4,1.6-2.2,2.2c-0.8,0.6-1.6,1.1-2.5,1.7c-0.9,0.6-1.6,1.3-2,2.2h6c0.9-3.4,2.6-6.3,5-8.7c-1.1,0-1.6-0.3-1.3-1H265.4z M263,519.5c-1.1,1.1-1.5,1.9-1.2,2.4c0.3,0.5,0.8,0.7,1.3,0.7c0.6,0,0.9-0.2,1-0.7C264.3,521.4,263.9,520.6,263,519.5z M266.4,553.7c-1.1-1.1-1.9-1.6-2.4-1.3c-0.5,0.2-0.6,0.6-0.5,1.2c0.1,0.6,0.4,1,1,1.3C265.1,555.2,265.7,554.8,266.4,553.7z M264.1,350.3c-0.5-1.3-0.2-2.1,0.7-2.2c0.9-0.1,1.9-0.2,3-0.2c-0.2,0.5-0.5,0.8-0.8,1c-0.3,0.2-0.5,0.7-0.5,1.3H264.1z M275.1,563.5c-2-0.2-2.8-1.8-2.4-4.7C273.9,559.4,274.7,561,275.1,563.5z M279.8,548.7c-0.7,0-1-1.5-1-4.4l2.7,4.4 c-0.7,0.7-0.3,1.1,1,1.3l3,5.4c-0.9,1.1-2,2.2-3.2,3.2c-1.2,1-2.1,2.2-2.5,3.5c-0.7-0.2-0.9-0.8-0.7-1.7c0.2-0.9,0.4-2,0.7-3.2 c0.2-1.2,0.3-2.4,0.3-3.4c0-1-0.5-1.8-1.3-2.5c-1.1,0.5-1.5,1.5-1.2,3.2c0.3,1.7-0.2,2.6-1.5,2.9c0-1.1-0.5-1.7-1.5-1.7 s-1.3-0.7-0.8-2c1.1-2,2.2-2.9,3.2-2.7C278,551.3,278.9,550.5,279.8,548.7z M281.8,562.5c1.3,0.2,2.9,0.5,4.5,0.7 c1.7,0.2,2.7-0.2,3.2-1.3l1.7,3l-7.4-0.3c0-0.2-0.3-0.6-0.8-1C282.5,563,282.1,562.7,281.8,562.5z M288.9,560.8 c-1.3-0.2-2.1-0.6-2.2-1c-0.1-0.4,0.1-1,0.5-1.7L288.9,560.8z M291.9,346.6l-2-1h2.7L291.9,346.6z M309.7,339.8h-1v-0.7h1V339.8z M348.7,556.7c0,0.9-0.1,1.8-0.2,2.7c-0.1,0.9-0.2,1.9-0.2,3l-33.9,0.3c-0.5-0.2-0.8-0.4-1.2-0.5c-0.3-0.1-0.5-0.5-0.5-1.2 l-0.3-15.8c1.1,0.5,2,1,2.5,1.5c0.6,0.6,1.2-0.2,1.8-2.2c-0.7,0.2-1.4,0.1-2.2-0.5c-0.8-0.6-1.5-0.8-2.2-0.8l-0.3-22.8 c0.4-0.2,1-0.1,1.7,0.3c0.7,0.5,1.4,1,2.2,1.5c0.8,0.6,1.6,1,2.4,1.3c0.8,0.3,1.5,0.1,2.2-0.8c0.4-1.1,0.5-1.8,0.2-2 c-0.3-0.2-0.8-0.3-1.3-0.3c-0.6,0-1.1-0.1-1.7-0.2c-0.6-0.1-0.8-0.5-0.8-1.2c1.6-0.4,2-1.7,1.3-3.7c2.5,1.1,3.7,0.7,3.7-1.3 c-2.9-1.6-4.8-4.4-5.5-8.6c-0.8-4.1-0.6-7.3,0.5-9.6c0.9,1.1,1.4,2.7,1.5,4.7c0.1,2,0.5,3.7,1.2,5c1.6-1.3,3.4-2.4,5.4-3.2 c2-0.8,3.8-1.7,5.4-2.9c-2-0.2-3.3-0.7-3.9-1.5c-0.6-0.8-0.7-1.8-0.5-3c0.2-1.2,0.6-2.5,1-3.9c0.4-1.3,0.8-2.7,1-4 c-2-1.6-4-1.6-6,0c-0.5,0.9-0.4,1.6,0.2,2c0.6,0.5,1.2,0.8,1.8,1.2c0.7,0.3,1.1,0.6,1.3,0.8c0.2,0.2-0.1,0.6-1,1 c-1.3-0.9-2.2-1.5-2.5-1.8c-0.3-0.3-1.1,0.3-2.2,1.8c0.4-1.8,0.3-2.9-0.5-3.2c-0.8-0.3-1.1-1.3-0.8-2.9c-2-0.4-3-0.1-3,1.2 c0,1.2-0.6,2.1-1.7,2.5c0-2.5-0.5-4.1-1.3-5h-0.7l-0.3-20.8c0.9,0.2,1.8,0.4,2.7,0.5c0.9,0.1,1.6,0.4,2,0.8c0-1.3,0.3-2.6,1-3.7 c-0.5-0.9-1.3-1.2-2.7-1c-1.3,0.2-2-0.2-2-1.3c0.9-0.2,1.1-0.6,0.5-1.2c-0.6-0.6-1.2-0.9-1.8-1.2V447c1.8,0.7,3.6,1.3,5.4,1.8 c1.8,0.6,3.7,1.3,5.7,2.2c0.7,0.9,0.7,1.5,0,1.8c-0.7,0.3-1.3,0.6-2,0.7c-0.7,0.1-1.2,0.2-1.5,0.2c-0.3,0,0.1,0.2,1.2,0.7 c3.8-0.9,6.6-3.2,8.4-7.1c-1.6-0.2-3.2-0.3-4.9-0.2c-1.7,0.1-3.2,0.1-4.7,0c-1.5-0.1-2.6-0.5-3.5-1.2c-0.9-0.7-1.3-1.9-1.3-3.7 c-1.1,0.7-2.1,1-3,1l-0.3-28.5c0.4-0.7,1.2-1.1,2.4-1.2c1.1-0.1,1.8-0.7,2-1.8c-0.5-0.4-0.7-1.2-0.7-2.2s-0.1-2.6-0.3-4.9 c1.6,0.7,2.7,0.7,3.4,0c0.7-0.7,1.2-1.3,1.5-2c0.3-0.7,0.6-1.1,0.8-1.2c0.2-0.1,0.7,0.5,1.3,1.8c0.4-1.6,0.7-2.7,0.8-3.5 c0.1-0.8-0.5-1.6-1.8-2.5c-0.2,1.3-0.9,2.1-2,2.4c-1.1,0.2-2.5,0.2-4,0c-0.2,1.1,0.1,2.4,1,3.7c-1.6-0.2-2.6,0.1-3,0.8 c-0.5,0.8-1,1.5-1.7,2.2v-15.8c0.4,0.9,0.8,1.5,1,1.7c1.1-1.1,1.5-2.2,1-3.2c-0.5-1-1.2-1.7-2.4-2.2l-0.3-26.2 c3.4-0.2,5.9,0.6,7.7,2.4c1.1-0.4,1.5-1.5,1.2-3.2s0.2-2.6,1.5-2.9c0,1.1,0.1,2.1,0.2,3c0.1,0.9,0.8,1.1,2.2,0.7 c0.4-1.8,1.3-3.3,2.5-4.5c1.2-1.2,2-3,2.2-5.2c-1.3,0.5-2.3,0.5-2.9,0c-0.6-0.4-0.8-1-0.7-1.7c0.1-0.7,0.4-1.3,0.8-1.8 c0.4-0.6,1-0.9,1.7-1.2c-1.3-1.8-2.7-2.5-4-2.2c-1.3,0.3-2.9,1.1-4.7,2.2c0,1.8-0.1,3.5-0.3,5c-0.2,1.6-1.2,2.2-3,2 c0-1.6-0.3-3-1-4.2c-0.7-1.2-1.3-2.4-1.8-3.5c-0.6-1.1-0.8-2.2-0.7-3.2c0.1-1,0.9-2.1,2.5-3.2l19.1-0.3c0,2.7-1.2,3.9-3.7,3.7 c-0.2-0.4-0.3-1-0.3-1.7c0-0.7-0.3-1-1-1v6.4c0.9-0.7,1.7-1.1,2.4-1.3c0.7-0.2,1.3-0.4,1.8-0.7c0.6-0.2,1.2-0.3,1.8-0.3 c0.7,0,1.6-0.1,2.7-0.3c-0.2,1.1-0.6,2.2-1,3.4c-0.5,1.1,0.2,1.7,2,1.7c1.6-0.4,2.1-1.8,1.5-4c-0.6-2.2-0.6-4.1-0.2-5.7l23.5-0.7 c3.1,0.2,4.5,1.9,4,5l0.3,9.4c-0.5-1.3-1.2-2.4-2.4-3c0.2,1.1,0.2,2.4,0,3.7c-0.2,1.3,0.6,1.8,2.4,1.3l0.3,22.2 c-0.2-0.2-0.7-0.3-1.3-0.3c0.4,1.3,0.4,3-0.2,5c-0.6,2-0.1,3.2,1.5,3.7c-0.5-1.1-0.5-2,0-2.7l0.3,14.8c-1.8-0.4-3.1-0.9-4-1.3 c0,1.6,0.4,2.8,1.2,3.7c0.8,0.9,1.7,1.6,2.9,2l0.7,23.2c-2.5-1.1-4-1-4.7,0.3c0,2.9,1.6,4.6,4.7,5v5c-1.6-0.7-3.1-1.2-4.7-1.5 c-1.6-0.3-2.8-1.1-3.7-2.2c1.3,4,4.1,7.2,8.4,9.4l0.3,11.4l-0.3-0.3c0.2,0.9,0.2,2,0,3.4c-0.2,1.3-0.1,2.2,0.3,2.7l0.3,9.1 c-1.8-0.9-3.2-0.7-4.4,0.7c0.7,3.4,1.1,7.2,1.2,11.6c0.1,4.4-0.6,8.2-2.2,11.6c0.4,1.1,1.2,1.7,2.4,1.8c1.1,0.1,2.2,0.3,3.4,0.5 v2.7c-1.8,0.5-3.5,0.7-5.2,0.8c-1.7,0.1-3.5,1.1-5.5,2.9c-2.9,5.6-5.9,11.1-8.9,16.5s-5.8,11.2-8.2,17.5c-0.5,0.9-1.3,1.3-2.7,1.2 c-1.3-0.1-2,0.4-2,1.5c1.1,1.8,1.5,3.2,1.2,4.2c-0.3,1-1.2,2.5-2.5,4.5c-1.3,2-1.7,3.9-1,5.7c2.2,0.7,4.2,1.6,5.9,2.7 c1.7,1.1,3.7,1.9,6.2,2.4c0.2-2.2,0.7-4.2,1.3-5.9s2.2-2.6,4.7-2.9c-2.7-1.3-3.7-3-3-4.9c0.7-1.9,0.9-3.5,0.7-4.9 c2.7-0.2,4.2-1.5,4.7-3.7c0.4-2.2,1.2-4.2,2.4-6c0.7,0.5,1,0.9,1,1.3c0,0.5-0.1,0.9-0.3,1.3c-0.2,0.5-0.4,0.9-0.5,1.3 c-0.1,0.5,0.3,0.8,1.2,1c0.7-0.7,1.1-1.5,1.3-2.5c0.2-1,0.5-1.9,0.8-2.7c0.3-0.8,0.8-1.5,1.5-2c0.7-0.6,1.9-0.6,3.7-0.2 c0.2-0.7,0.2-1.5,0-2.4c-0.2-0.9-0.3-1.8-0.3-2.7c0-0.9,0.2-1.6,0.5-2c0.3-0.4,1.1-0.6,2.2-0.3c0.2-2.2-0.5-3.5-2.2-3.9 c-1.7-0.3-3-1.1-3.9-2.2c1.8-0.7,4.2-2.6,7.4-5.7v3.4c-1.1,1.6-1.1,2.6,0,3l0.3,23.5c-0.5-0.2-0.7-0.6-0.8-1.2 c-0.1-0.6-0.4-0.9-0.8-1.2c0,0.9-0.3,1.6-1,2c-0.7,0.5-1.3,0.8-2,1.2c-0.7,0.3-1.2,0.8-1.7,1.3c-0.5,0.6-0.5,1.5,0,2.9 c2.9-0.7,5.1-2,6.7-4v16.5c-1.3,0.9-3.8,1.3-7.4,1.3c-3.6,0-6.3,0.1-8.1,0.3C351.6,555.3,350,555.9,348.7,556.7z M311.4,490.9 c0.9,1.1,1.5,2.3,1.7,3.5c0.2,1.2-0.3,2.1-1.7,2.5V490.9z M312.1,414.4c-0.7,0.5-0.7,1-0.2,1.7c0.6,0.7,1.2,1.1,1.8,1.3 c0.7,0.2,1.3,0.2,1.8,0c0.6-0.2,0.6-0.9,0.2-2c-0.7-0.2-1.2-0.4-1.7-0.7C313,414.3,312.3,414.2,312.1,414.4z M311.7,517.8v-2.7 c0.7,0.9,1.2,1.8,1.7,2.7H311.7z M315.8,379.1v-2.7h-2.4v2.7H315.8z M315.8,394.9c1.8-1.8,3.5-2.6,5.2-2.4c1.7,0.2,4,0.6,6.9,1 c-0.5-1.8-1.1-2.9-2-3.4c-0.9-0.4-1.9-0.6-3-0.5c-1.1,0.1-2.4,0.2-3.7,0.2c-1.3,0-2.5-0.3-3.4-1c2,0.5,2.8-0.1,2.4-1.7 c-0.5-1.6-1.2-2.2-2.4-2c-0.5,2.5-0.7,4.1-0.7,4.9C315.1,390.8,315.3,392.5,315.8,394.9z M323.1,546c0.4-0.2,0.9-0.2,1.5,0 c0.6,0.2,1,0.5,1.3,0.8c0.3,0.3,0.7,0.5,1,0.5s0.6-0.4,0.8-1.3c-2.2-1.3-3.2-2.9-3-4.5c0.2-1.7,0.4-3.9,0.7-6.5c-0.5-0.7-1-1-1.5-1 c-0.6,0-1.3,0.1-2.2,0.3c-0.9,0.2-1.3,0-1.3-0.7c1.1-1.6,1.6-3.6,1.3-6c-1.1-0.2-2-0.8-2.5-1.7c-0.6-0.9-1.7-1.1-3.5-0.7 c-0.7,2.7-0.6,5,0.3,6.9c0.9,1.9,2,3.6,3.2,5c1.2,1.5,2.3,2.9,3.2,4.2C323.4,542.6,323.6,544.2,323.1,546z M315.8,549.4 c0.9,1.1,2.1,1.5,3.7,1c1.6-0.4,2.8-1.1,3.7-2c-2.2,0.7-3.8,0.7-4.5,0.2C317.8,548,316.9,548.2,315.8,549.4z M318.1,472.8 c-0.2,1.8-0.1,2.9,0.3,3.2c0.4,0.3,0.9,0.3,1.3-0.2c0.4-0.4,0.6-1,0.5-1.7C320.2,473.5,319.4,473,318.1,472.8z M318.1,377.8 c1.8,0,3-0.3,3.5-1c0.6-0.7,0.7-1.5,0.5-2.4c-0.2-0.9-0.7-1.7-1.5-2.5c-0.8-0.8-1.6-1.3-2.5-1.5V377.8z M318.1,379.1 c0,1.8,0.1,3.5,0.2,5.2c0.1,1.7,1.3,2.3,3.5,1.8c1.1-2,1.2-3.4,0.2-4.2C321,381.2,319.7,380.3,318.1,379.1z M318.1,413 c1.6,1.1,2.9,1.4,3.9,0.8c1-0.6,2.2-0.1,3.5,1.5c0-3.6-1.2-5.9-3.7-7.1c-0.2,1.1-0.7,2-1.5,2.5C319.5,411.4,318.8,412.2,318.1,413z M323.1,494.6c-0.9,2.2-2.1,2.7-3.7,1.3v-2.4c0.4,0.2,0.9,0.5,1.5,0.7C321.5,494.5,322.2,494.6,323.1,494.6z M324.1,473.8 c-0.2-1.3,0.1-2.2,0.8-2.7c0.8-0.4,0.9-1.6,0.5-3.4c-1.8,0.5-2.8,0.2-3-0.8c-0.2-1-0.9-1.5-2-1.5c0,2,0.3,3.6,1,4.9 C322.1,471.5,323,472.7,324.1,473.8z M327.8,365.7c-1.1-0.7-2.1-1.4-2.9-2.2c-0.8-0.8-1.4-0.1-1.8,2.2c0.4,0.2,1.3,0.7,2.5,1.3 C326.9,367.7,327.6,367.3,327.8,365.7z M323.1,399.6c0.4,1.1,0.8,2.3,1,3.5c0.2,1.2,0.5,2.5,0.8,3.7c0.3,1.2,0.8,2.3,1.3,3.2 c0.6,0.9,1.5,1.5,2.9,1.7c0.7-0.9,0.9-1.8,0.7-2.7c-0.2-0.9-0.6-1.8-1.2-2.9c-0.6-1-1.1-2-1.5-3c-0.5-1-0.7-2.2-0.7-3.5H323.1z M329.2,377.8c0-1.8-0.1-3.6-0.2-5.4c-0.1-1.8-1.3-2.5-3.5-2c0.4,1.6,0.7,3.2,0.8,4.9C326.4,377,327.4,377.8,329.2,377.8z M330.2,422.8c0.2-0.7,0.1-1.1-0.5-1.2c-0.6-0.1-1.2-0.1-1.8,0c-0.7,0.1-1.1,0.3-1.3,0.7c-0.2,0.3,0.2,0.5,1.3,0.5 c1.6,0.9,3,1.2,4.4,1c1.3-0.2,2.6-0.7,3.7-1.3c1.1-0.7,2.2-1.4,3.4-2.2c1.1-0.8,2.2-1.5,3.4-2.2c-0.9-1.3-1.7-3.9-2.4-7.7 c-0.7-3.8-1.3-6.5-2-8.1c-0.7-1.6-1.7-2.8-3-3.7c0.4,1.3,0.9,2.9,1.3,4.7c0.4,1.8,0.8,3.7,1,5.7c0.2,2,0.3,3.9,0.3,5.7 c0,1.8-0.1,3.2-0.3,4.4c-0.7,0-1.4-0.9-2.2-2.7c-0.8-1.8-1.4-2.9-1.8-3.2c-0.5-0.3-1.1,0.1-2,1.2c1.8,0.2,2.6,1.8,2.4,4.7 c-1.1-0.4-1.8-0.4-2,0c-0.2,0.5-0.3,1-0.3,1.5c0,0.6-0.1,1.1-0.2,1.7C331.3,422.8,330.9,423,330.2,422.8z M326.5,476.5 c0.7,0,1.2,0.2,1.5,0.5c0.3,0.3,0.7,0.5,1.2,0.5c-0.2-0.9-0.4-1.8-0.5-2.7c-0.1-0.9-0.8-1.2-2.2-1V476.5z M330.2,554.4 c0.4-3.1-0.3-4.8-2.4-5c0.2,1.1,0.2,2.4,0,3.9C327.6,554.7,328.4,555.1,330.2,554.4z M329.2,364.4c0.9,0.9,1.6,1.2,2.2,1 c0.6-0.2,0.8-0.6,0.8-1.2c0-0.6-0.3-0.9-0.8-1.2C330.8,362.8,330.1,363.2,329.2,364.4z M329.2,403.3c0.9,0.2,1.7,0,2.4-0.7 c0.7-0.7,1.2-1.4,1.7-2.2c0.4-0.8,0.7-1.6,0.7-2.5c0-0.9-0.3-1.6-1-2c0,2.2-1.2,3.1-3.7,2.7V403.3z M330.2,382.5 c0.2,1.1,0.2,2.1,0,2.9c-0.2,0.8-0.5,1.5-0.7,2c-0.2,0.6-0.2,1.1,0,1.5c0.2,0.5,0.9,0.8,2,1c1.1-0.9,1.4-2.1,0.8-3.7 C331.8,384.6,331.1,383.4,330.2,382.5z M331.5,348.6c-1.3,1.1-2,1.8-1.8,2.2c0.1,0.3,0.7,0.8,1.8,1.5c1.1,0.5,1.5-0.1,1-1.7 C332.1,349,331.8,348.4,331.5,348.6z M332.9,427.8c-1.3-1.1-2.2-1.6-2.7-1.3c-0.5,0.2-0.6,0.6-0.3,1.2c0.2,0.6,0.6,1,1.2,1.2 C331.6,429,332.2,428.7,332.9,427.8z M330.2,492.3c1.8,0,3,0.5,3.7,1.3c0.7,0.9,1.2,2,1.7,3.4c0.4,1.3,1,2.7,1.7,4 c0.7,1.3,2,2.5,4,3.4c0.9,0,1.3-0.6,1.2-1.7c-0.1-1.1-0.1-2.1,0.2-3c-3.1,0-5.3-0.9-6.4-2.7c1.1-0.7,2.5-1.1,4.2-1.3 c1.7-0.2,3.2-0.6,4.5-1c-0.9,1.8-1.2,3.9-0.8,6.2c0.3,2.4,1.4,4,3.2,4.9c0-3.1,0.3-5.1,0.8-5.9c0.6-0.8,2.3-1.7,5.2-2.9 c-1.1-0.4-2.1-0.7-3-0.7c-0.9,0-1.7-0.1-2.4-0.2c-0.7-0.1-1.3-0.4-1.8-0.8c-0.6-0.4-1-1.5-1.2-3c-1.3,0.5-2.7,0.5-4,0.2 c-1.3-0.3-2.6-0.7-3.9-1c-1.2-0.3-2.5-0.5-3.7-0.5C332.1,490.9,331.1,491.4,330.2,492.3z M335.2,453.3c1.1,3.4,3.1,5.5,6,6.5 c2.9,1,6.2,0.8,9.7-0.5c-2-0.2-3.7-0.8-5-1.7c-1.3-0.9-2.5-1.7-3.5-2.5c-1-0.8-2.1-1.5-3.2-2C338.1,452.6,336.8,452.7,335.2,453.3z M342.6,471.5c-0.2-1.1-0.1-1.9,0.5-2.4c0.6-0.4,1.3-0.7,2.2-0.8c0.9-0.1,1.7-0.3,2.4-0.7c0.7-0.3,1-1.1,1-2.2 c-2,0.5-3.6,0.5-4.7,0c-1.1-0.4-2.5-0.9-4-1.3c-0.2,1.8-0.3,3.5-0.2,5C339.9,470.7,340.8,471.5,342.6,471.5z M348.7,348.6 c0.7-0.7,0.8-1.6,0.3-2.7c-0.5-1.1-1.2-2.1-2.2-3c-1-0.9-2-1.4-3-1.5c-1-0.1-1.8,0.6-2.5,2.2c2.2,0,3.6,0.7,4,2.2 C345.7,347.2,346.9,348.1,348.7,348.6z M343.6,452v-2.4h-2.4v2.4H343.6z M346,533.6c1.1,0.5,1.5,1,1,1.7c-0.5,0.7-0.8,1.3-1,2 c-1.1-0.4-1.4-0.9-0.8-1.5C345.7,535.2,346,534.5,346,533.6z M354.7,343.5c0,1.1-0.5,2.4-1.3,3.7h3.7c0-1.1-0.1-2.1-0.2-2.9 C356.8,343.6,356,343.3,354.7,343.5z M362.1,558.1c1.1,1.6,1.2,2.9,0.3,4h-7.1c0.4-1.3,0.2-2.7-0.7-4c1.6,0.5,3,1,4.2,1.7 C360.1,560.4,361.2,559.9,362.1,558.1z M357.1,497c-0.5-0.7-0.6-1.3-0.3-1.8c0.2-0.6,0.5-1,0.8-1.3c0.3-0.3,0.5-0.7,0.5-1 c0-0.3-0.3-0.5-1-0.5c-0.5,1.1-1.1,2.1-1.8,2.9C354.4,495.9,355,496.5,357.1,497z M360.7,508.1c-1.3-0.2-1.8-1.4-1.3-3.5 c0.4-2.1,0.4-3.7,0-4.9c1.8,1.1,2.5,2.3,2,3.5C361,504.4,360.7,506,360.7,508.1z M363.1,416.7c-1.8,0.2-2.9,0.5-3.2,0.7 c-0.3,0.2-0.3,0.5,0,0.7c0.3,0.2,0.8,0.5,1.5,0.8c0.7,0.3,1.2,0.8,1.7,1.5V416.7z M360.7,454.3c-0.5,0.7-0.5,1.2-0.2,1.7 c0.3,0.5,0.8,0.8,1.3,1c0.6,0.2,1.1,0.2,1.7,0c0.6-0.2,0.8-0.7,0.8-1.3c-0.9,0-1.5-0.3-1.7-0.8 C362.5,454.3,361.9,454.1,360.7,454.3z M365.8,488.6c0.2,0.5,0.5,0.7,0.8,0.7c0.3,0,0.7,0.1,1.2,0.3v2c-0.7-0.2-1.3-0.5-1.8-0.8 C365.4,490.4,365.3,489.7,365.8,488.6z M458.1,503c1.8,5.4,4.1,9.6,6.9,12.8c2.8,3.1,6,5.5,9.6,7.1c3.6,1.6,7.4,2.6,11.4,3 c4,0.5,8.3,0.6,12.8,0.3c6.3-0.2,12.1-0.7,17.5-1.5c5.4-0.8,10.3-1.7,14.8-2.9c0.9,0.7,1.6,1.7,2,3l0.3,13.1 c-6.7,1.6-11.1,5.2-13.1,10.9c-2,5.7-1.2,11.4,2.3,17c-0.2,0.2-0.6,0.3-1,0.3c-0.5-1.1-1.1-2.1-1.8-2.9c-0.8-0.8-1.6-1.5-2.5-2.2 c-1.6,1.1-1.9,3.1-1,6c-3.4,0.4-6.4,0.8-9.1,1c-0.9-0.5-1.1-1.4-0.5-2.9c0.6-1.5,0.2-2.1-1.2-1.8c0.2,3.6-1.3,5.3-4.7,5 c-0.5-1.1-0.2-2.2,0.7-3.4c0.9-1.1,0.1-1.7-2.4-1.7c0.4,1.6,0.4,2.6-0.2,3.2c-0.6,0.6-0.7,1.4-0.5,2.5h-5.7 c-17.7,0.7-33-1.5-46-6.4c0.4-0.4,0.8-0.8,1.2-1c0.3-0.2,0.3-0.9-0.2-2c-1.3,0-2.4-0.4-3-1.2c-0.7-0.8-1.2-1.6-1.7-2.5 c-0.5-0.9-1-1.8-1.5-2.7c-0.6-0.9-1.3-1.5-2.2-1.7c-0.5,1.1-1,2.1-1.5,2.9c-0.6,0.8-1,2-1.2,3.5l-6-4l1-1l-1.7,0.3 c-1.6-1.1-3.1-2.3-4.5-3.5c-1.5-1.2-2.9-2.4-4.2-3.5l1-0.3c-0.2-1.1-0.2-2.4,0-3.7c0.2-1.3-0.6-1.6-2.4-0.7c-0.2,0.9-0.1,1.9,0.3,3 l-1.7-1.7c-0.5-1.1-0.5-1.8,0-2.2c0.4-0.3,1-0.5,1.7-0.5c0.7,0,1.3-0.2,1.8-0.5c0.6-0.3,0.5-1.1-0.2-2.2c-0.9,0.5-2.1,0.5-3.7,0.2 c-1.6-0.3-2.7-0.2-3.4,0.5c-1.3-2-2.6-4-3.9-6c-1.2-2-2.3-4.2-3.2-6.7c0.7,0.5,1.5,0.7,2.5,0.8c1,0.1,2,0.4,2.9,0.8 c-0.9-2.5-2.2-4.6-3.9-6.4c-1.7-1.8-3.5-3.4-5.5-4.7c-1.8-5.8-3.3-12.2-4.5-19.1c-1.2-6.9-2-14.4-2.2-22.5l-1-28.5 c-0.7-17.9,1-33.3,5-46.3c1.8-0.7,3.5-1.3,5.2-2c1.7-0.7,2.7-2,3.2-4c0.7,3.4,0.4,5.9-0.7,7.7c1.1,0.5,2.2,0.8,3.4,1 c1.1,0.2,2.5,0.5,4,0.7c0.4-0.9,0.7-2,0.7-3.2c0-1.2,0.6-2.1,1.7-2.5c0.7,2.7,1.8,4.4,3.5,5s3,2,3.9,4c0.2-1.1,0.5-1.7,0.8-1.8 c0.3-0.1,0.7-0.1,1.2,0.2c0.4,0.2,1,0.6,1.7,1c0.7,0.5,1.5,0.6,2.4,0.3c0.4-0.4,1.1-1.1,1.8-2c0.8-0.9,1.5-1.7,2-2.5 c0.6-0.8,0.7-1.6,0.3-2.4c-0.3-0.8-1.5-1.2-3.5-1.2c-0.2,1.3-0.6,2.6-1,3.7c-0.5,1.1-1.7,1.5-3.7,1c1.1-1.6,1.5-2.8,1-3.7 c-0.5-0.9-1.3-1.7-2.5-2.4c-1.2-0.7-2.5-1.3-3.9-1.8c-1.3-0.6-2.5-1.1-3.4-1.5c1.1-1.3,2.6-2.3,4.4-2.9c1.8-0.6,3.1-1.6,4-3.2 c-0.9,0-1.5-0.4-1.7-1.3c-0.5,0-0.8-0.1-1.2-0.3c-0.3-0.2-0.7-0.3-1.2-0.3c0.2,0.7-0.3,1.6-1.5,2.9c-1.2,1.2-2.2,1-2.9-0.8 c2.5-2.9,5.6-6.2,9.4-9.7c-2,0-3.6,0.3-4.9,0.8c-1.2,0.6-2.5,1.2-3.7,2c-1.2,0.8-2.6,1.6-4,2.4c-1.5,0.8-3.3,1.3-5.5,1.5l0.3,7.1 c-1.8-0.9-3.8-1.2-6-1c0.9,2.7,0.8,4.4-0.2,5s-2,1.5-2.9,2.4c0.2-0.4,0.3-0.8,0.3-1.2c0-0.3,0.1-0.7,0.3-1.2 c0.7-0.2,0.9-0.7,0.7-1.3c3.1-9,7.5-16.5,13.1-22.7c5.6-6.2,12-11.1,19.1-14.9c0.7,1.8,0.9,3.2,0.7,4.4c1.1-0.4,2.2-0.6,3.4-0.3 c1.1,0.2,2.1,0.5,2.9,0.7c0.8,0.2,1.5,0.2,2.2,0c0.7-0.2,1.1-0.9,1.3-2c-1.3-0.2-2.7-0.8-4.2-1.7c-1.5-0.9-2.7-1.8-3.9-2.7l5.7-2.4 c-0.5,1.3,0,2,1.3,2c1.3,0,1.5-0.9,0.3-2.7c4.7-1.8,9.7-3.2,14.9-4.2c5.3-1,10.8-1.8,16.6-2.5c0,1.6,1.1,2.7,3.4,3.4 c0-0.4-0.1-1-0.2-1.7c-0.1-0.7-0.2-1.2-0.2-1.7h3.7c-1.1,1.6-1.5,3.1-1,4.7c1.1-0.4,1.7-2,1.7-4.7c6.7-0.4,13.3-0.4,19.8,0 c6.5,0.5,13,1.2,19.5,2.4c0.9,0.9,1.6,1.8,2,2.7c0.4,0.9,0.7,2.2,0.7,4l0.7,27.5c-0.2,0.2-0.3,0.9-0.3,2h0.3l0.3,5 c-0.5,0.9-1.1,1.3-2,1.3c-5.6-1.1-10.8-1.9-15.6-2.4c-4.8-0.4-10.1-0.6-15.9-0.3c-3.8,0.2-7.4,0.6-10.9,1c-3.5,0.5-6.8,1.2-9.9,2.4 c-0.5-0.9-1.2-1.4-2.2-1.5c-1-0.1-2.1-0.1-3.2,0.2c-0.2,1.1-0.1,1.8,0.5,2.2c0.6,0.3,1.1,0.7,1.5,1.2c-5.4,3.1-9.6,8.2-12.6,15.1 c-3,6.9-4.3,17.1-3.9,30.6l1.3,40c0.2,4.5,0.6,8.6,1.2,12.4c0.6,3.8,1.2,7.3,1.8,10.4c-0.9,0-1.5,0.7-1.7,2 c0.7-0.2,1.2-0.3,1.5-0.2C457.3,503,457.7,503,458.1,503z M397.7,418.4c-0.5,1.1-0.4,1.7,0.2,1.8c0.6,0.1,1.2,0,1.8-0.3 c0.7-0.3,1.2-0.8,1.7-1.5c0.4-0.7,0.3-1.2-0.3-1.7c-0.5-0.4-1.1-0.4-2,0.2C398.1,417.5,397.7,418,397.7,418.4z M410.8,525.2 c-1.1,0.2-1.8,0.1-2.2-0.3c-0.3-0.4-0.7-0.4-1.2,0c-0.5-0.7-0.7-1.3-0.8-2c-0.1-0.7-0.4-1.3-0.8-2c1.1,0.7,2.1,1.3,3,1.8 C409.6,523.2,410.3,524.1,410.8,525.2z M406.4,495.3c0.4,0.2,1.3,0.7,2.5,1.3c1.2,0.7,1.8,0.2,1.8-1.3c-0.2,0-0.6-0.2-1-0.5 c-0.5-0.3-1-0.6-1.5-0.7c-0.6-0.1-1-0.1-1.3,0C406.6,494.2,406.4,494.6,406.4,495.3z M419.5,535.6c0.7-0.7,0.8-1.2,0.5-1.7 c-0.3-0.4-0.8-0.7-1.5-0.8c-0.7-0.1-1.3-0.1-1.8,0.2c-0.6,0.2-0.8,0.6-0.8,1c0.7,0,1.3,0.1,2,0.3 C418.9,535,419.5,535.4,419.5,535.6z M417.5,406.7c-0.5,0.7-0.5,1.2-0.2,1.7c0.3,0.5,0.8,0.7,1.3,0.8c0.6,0.1,1.1,0.1,1.7-0.2 c0.6-0.2,0.7-0.7,0.5-1.3c-0.7-0.2-1.1-0.6-1.3-1C419.3,406.2,418.6,406.2,417.5,406.7z M424.5,377.5c-0.2-0.9,0.1-2,1-3.4 c-0.5,0-1.1,0.1-1.8,0.3c-0.8,0.2-1.4,0.5-1.8,0.8c-0.5,0.3-0.7,0.8-0.8,1.3c-0.1,0.6,0.3,1,1.2,1.2 C422.2,376.9,423,376.8,424.5,377.5z M431.3,429.8l-2.4,0.3v2.7l2.4-0.3V429.8z M430.9,377.5c1.6,1.3,2.8,1.3,3.7,0 c0.9-1.3,1.9-2.6,3-3.7c-1.3,0.5-2.7,0.8-4.2,1C432,375,431.1,375.9,430.9,377.5z M436.3,511.1c0-0.9,0.2-1.6,0.5-2.2 c0.3-0.6,0.7-1.1,1-1.5c0.3-0.4,0.4-0.8,0.3-1.2c-0.1-0.3-0.7-0.7-1.8-1.2c-0.7,1.1-1.3,2.3-2,3.5 C433.6,509.8,434.3,510.6,436.3,511.1z M434.9,387.9c-0.2,2.9,0.4,5,2,6.4c0.9-1.1,1.2-2.5,0.8-4 C437.5,388.6,436.5,387.9,434.9,387.9z M438.6,559.1c1.1-0.4,2.1-0.4,3,0.2c0.9,0.6,1.6,1.3,2,2.2c-0.7-0.4-1.4-0.8-2.2-1.2 C440.7,559.9,439.8,559.5,438.6,559.1z M439,547c1.6,0.7,3,0.4,4.2-0.8c1.2-1.2,0.9-2.3-0.8-3.2c0.2,1.6-0.3,2.4-1.5,2.4 C439.6,545.3,439,545.9,439,547z M445.7,401c-0.2-1.1-1.2-1.3-2.9-0.7c-1.7,0.7-2.7,1.2-3.2,1.7c1.6-0.2,2.5,0.1,2.9,0.8 c0.3,0.8,1.4,1,3.2,0.5V401z M444.7,503.4c-2.7-0.4-4.3,0.6-4.7,3c1.1-0.4,2.1-0.8,2.9-1.2C443.6,504.9,444.2,504.3,444.7,503.4z M446,519.1c0.2-0.2,0.2-0.8-0.2-1.8c-0.3-1-0.5-2-0.5-3s0.3-1.8,1-2.4c0.7-0.6,2.2-0.6,4.7-0.2c0.2-2-0.3-3.1-1.7-3.2 c-1.3-0.1-2.6-0.6-3.7-1.5c0,1.8-0.8,2.9-2.4,3.2c-1.6,0.3-2.6,1.1-3,2.2c1.8,0.2,2.7,1.3,2.7,3.2C443,517.5,444,518.7,446,519.1z M492.4,547.3c1.3-1.3,1.8-2.5,1.5-3.4c-0.3-0.9-1.1-1.6-2.2-2c-1.1-0.4-2.4-0.6-3.9-0.5c-1.5,0.1-2.6,0.6-3.5,1.5 c-1.6-2.5-3.6-4.2-6-5.2c-2.5-1-4.1-2.9-5-5.5c2,0.5,2.6,0.1,1.7-1c-0.9-1.1-1.6-1.9-2-2.4c0.4,1.8,0.3,3.1-0.5,3.9 c-0.8,0.8-1.7,1.5-2.9,2.2c0.4-2.2,0-4.3-1.3-6.2c-1.3-1.9-3.2-3.5-5.5-4.9c-2.4-1.3-4.8-2.3-7.4-2.9c-2.6-0.6-4.8-0.8-6.5-0.8 c0.2,1.3,0.9,2.6,2.2,3.7c1.2,1.1,2.3,2.2,3.2,3.4c0.9,1.1,1.5,2.2,1.7,3.4c0.2,1.1-0.3,2.4-1.7,3.7c1.1,0.5,2,1.1,2.7,2 c0.7,0.9,1.3,1.9,1.8,3c0.6,1.1,1.2,2.1,2,3c0.8,0.9,1.8,1.3,3.2,1.3c-0.5-1.1-0.3-1.9,0.3-2.4c0.7-0.4,1.5-0.7,2.5-0.7 s2,0.2,2.9,0.5c0.9,0.3,1.5,0.6,1.7,0.8c0-1.1-0.3-1.8-0.8-2.2c-0.6-0.3-1.2-0.6-2-0.8c-0.8-0.2-1.5-0.5-2.2-0.8 c-0.7-0.3-1.1-0.9-1.3-1.8c2.2,0,3.8-0.3,4.7-1c2.5,2.5,5.2,4.6,8.2,6.4c3,1.8,5.7,4.1,7.9,7.1c0.4,0.7,0.7,1.4,0.8,2.2 c0.1,0.8,0.2,1.5,0.3,2.2c0.1,0.7,0.4,1.2,1,1.5c0.6,0.3,1.5,0.3,2.9-0.2c-0.2-2.5-1.1-4-2.5-4.7c-1.5-0.7-2.3-2.1-2.5-4.4 c1.1-0.4,2-0.6,2.5-0.3c0.6,0.2,1.2,0.7,1.8,1.3C490.7,547,491.5,547.3,492.4,547.3z M450.4,362.3c-1.1,1.6-1.5,3-1.2,4.4 c0.3,1.3,1,2.7,2,4c1,1.3,2.3,2.7,3.9,4c1.6,1.3,3,2.7,4.4,4c0.2-1.3-0.2-2.7-1.2-4c-1-1.3-2.1-2.7-3.4-4c-1.2-1.3-2.4-2.7-3.4-4 C450.6,365.4,450.2,363.9,450.4,362.3z M454.8,557.1h-2.4l0.3,2.4h2.4L454.8,557.1z M456.8,506.7c-1.1,0.2-2.1,0.4-2.9,0.5 c-0.8,0.1-1.1,0.8-0.8,2.2C454.9,509.4,456.1,508.5,456.8,506.7z M465.5,529.2c0.2,1.1,0.6,1.9,1.2,2.4c0.6,0.5,0.7,1.2,0.5,2.4 c-2.2-1.1-4.3-2.4-6.2-3.9c-1.9-1.5-3.9-2.9-5.9-4.2c1.1-0.9,2.1-1.1,2.9-0.5c0.8,0.6,1.5,1.3,2.2,2.4c0.7,1,1.4,1.8,2.2,2.4 C463.1,530.6,464.2,530.3,465.5,529.2z M460.1,367.7c-0.5,0-0.8-0.2-1.2-0.5c-0.3-0.3-0.7-0.7-1.2-1c-0.5-0.3-0.9-0.4-1.3-0.3 c-0.5,0.1-0.8,0.6-1,1.5c0.4,0,1.1,0.3,2,1c0.9,0.7,1.5,1,1.8,1C459.6,369.4,459.9,368.8,460.1,367.7z M460.8,391.9 c0.9,0.2,1.8-0.1,2.7-0.8c0.9-0.8,1.5-1.7,1.8-2.9c0.3-1.1,0.4-2.1,0.2-3c-0.2-0.9-1-1.3-2.4-1.3c-0.5,1.1-1,2.3-1.5,3.5 C461.1,388.6,460.8,390.1,460.8,391.9z M461.5,367c-0.5,0.9-0.5,1.5,0,1.7c0.4,0.2,0.9,0.4,1.3,0.5c0.4,0.1,0.8,0.3,1.2,0.5 c0.3,0.2,0.3,0.8-0.2,1.7c-0.5,0-0.7,0.4-0.8,1.2c-0.1,0.8,0.2,1.3,0.8,1.5c0.7-2.7,1.6-4.2,2.7-4.7c0,0.9,0.1,1.2,0.3,1 c0.2-0.2,0.4-0.7,0.7-1.3c0.2-0.7,0.3-1.3,0.2-1.8c-0.1-0.6-0.5-0.6-1.2-0.2c-0.2,1.3-1,1.7-2.4,1.2 C462.8,367.7,461.9,367.3,461.5,367z M462.8,547.3c1.1-0.2,2.4-0.3,3.7-0.2c1.3,0.1,1.7-0.7,1-2.5h-4.7V547.3z M471.2,383.5 c-0.2-1.1-0.5-2.3-0.7-3.5c-0.2-1.2-1.1-1.7-2.7-1.5c0.4,1.1,0.8,2.2,1,3.4C469.1,382.9,469.9,383.5,471.2,383.5z M469.9,373.8h3.4 c0.2-2.2-0.9-3.1-3.4-2.7V373.8z M471.2,346.2c-0.2,1.3-0.1,2.4,0.5,3.2c0.6,0.8,1.1,1.5,1.7,2.2c0.6,0.7,1.1,1.5,1.7,2.5 c0.6,1,0.7,2.3,0.5,3.9c-0.5,0-0.7,0.2-0.8,0.5c-0.1,0.3,0.2,0.6,0.8,0.8c0.2-0.7,0.6-1.1,1.2-1.3c0.6-0.2,0.9-0.7,1.2-1.3 c-1.1-1.8-2-3.7-2.5-5.9C474.8,348.6,473.4,347.1,471.2,346.2z M471.5,555.1c0.9-0.2,1.6-0.2,2.2,0c0.6,0.2,1.1,0.5,1.5,0.7 c0.4,0.2,0.8,0.2,1.2,0c0.3-0.2,0.6-0.9,0.8-2c-1.1-0.2-2.2-0.5-3.4-0.8C472.8,552.5,472,553.3,471.5,555.1z M477.2,383.2 c1.3,0,2.3-0.5,2.9-1.5c0.6-1,0.7-2,0.5-3c-0.2-1-0.8-2-1.7-2.9c-0.9-0.9-1.9-1.2-3-1c-0.5,1.3-0.5,2.4-0.2,3.2 c0.3,0.8,0.8,1.4,1.3,1.8c0.6,0.5,0.9,1,1,1.5C478.2,381.9,477.9,382.5,477.2,383.2z M488.7,564.1h-2.4v2.4h2.4V564.1z M494,550.7 c-1.3-0.9-2.2-1.2-2.5-1c-0.3,0.2-0.5,0.6-0.3,1c0.1,0.5,0.4,0.8,1,1.2C492.7,552.2,493.4,551.8,494,550.7z M502.1,546 c-0.9-0.2-1.2-1.1-1-2.7c-1.6,0.2-3,0.5-4.2,0.7c-1.2,0.2-1.8,1-1.8,2.4c0.7,0.7,2,1.3,3.9,1.8C500.8,548.7,501.9,548,502.1,546z M504.4,544.3c0-0.7-0.3-1-1-1c0.2,1.1,0.7,2,1.5,2.5c0.8,0.6,1.6,1,2.5,1.3c0.9,0.3,1.7,0.8,2.5,1.3c0.8,0.6,1.2,1.4,1.2,2.5 c-0.2,0.2-0.6,0.5-1.2,0.7c-0.6,0.2-0.3,0.5,0.8,0.7c1.8-2.7,3.2-5.1,4.2-7.2c1-2.1,2.7-3.7,5.2-4.9c-1.1-0.4-2.6-0.7-4.4-0.7 c-1.8,0-3.5,0.2-5.2,0.7c-1.7,0.5-3.1,1.1-4.2,1.8C505.3,542.9,504.7,543.7,504.4,544.3z M509.8,561.1c0.2-2.2-0.9-2.9-3.4-2v2.4 L509.8,561.1z M515.9,558.8c0-0.9-0.2-1.8-0.5-2.9c-0.3-1-0.6-0.9-0.8,0.2c-0.2,0.9-0.1,1.8,0.3,2.9 C515.3,559.9,515.6,559.9,515.9,558.8z M519.9,369.4c0.4-2,0.1-3.6-1-4.9c-1.1-1.2-1.9-0.8-2.4,1.2c1.3,0.5,2,0.9,2,1.3 c-0.7,0.2-0.8,0.6-0.3,1.2C518.7,368.8,519.2,369.2,519.9,369.4z M534,559.1c-1.1-0.4-2.2-1.1-3.2-2c-1-0.9-1.3-2.2-0.8-4 c1.8,1.6,3.1,2.4,4,2.4l0.3,7.1c-0.7,0.9-1.2,1.3-1.7,1.3c-1.1,0.2-2.2,0.4-3.2,0.5c-1,0.1-2.1,0.4-3.2,0.8 c-1.6-3.4-2-7.3-1.3-11.8c0.9,0.9,1.4,2.1,1.5,3.7c0.1,1.6,0.2,3.1,0.2,4.7c1.8-0.2,3.4-0.3,4.9-0.3 C532.9,561.4,533.8,560.7,534,559.1z M527.9,533.9c-1.1,1.8-1.6,3-1.5,3.5c0.1,0.6,0.3,0.7,0.7,0.5c0.3-0.2,0.7-0.7,1-1.5 C528.5,535.7,528.4,534.8,527.9,533.9z M533.7,551.7c-0.7-1.1-1.1-1.9-1.3-2.4c0.4-0.2,0.7-0.4,0.8-0.7c0.1-0.2,0.3-0.4,0.5-0.7 V551.7z M724,555.7c1.6,2,1.1,3.2-1.3,3.7l-42.3,1c-0.5-1.6-1-3.1-1.7-4.5c-0.7-1.5-1.6-2.7-2.7-3.9c0.4,1.1,0.7,2.5,0.8,4.2 c0.1,1.7,0.5,3.1,1.2,4.2h-8.4l-2.3-1l-4.7-7.1c0.9-0.7,1.9-1.2,3-1.5c1.1-0.3,1.8-1.2,2-2.5c-1.8,0-3.4-0.4-4.7-1.3 c-1.3-0.9-2.5-1.9-3.5-3c-1-1.1-2-2.2-2.9-3.2c-0.9-1-1.9-1.7-3-2.2l-42-64.1l0.7,52h-2v2.4h2l0.7,31.2c-0.7,1.1-1.7,1.7-3,1.7 l-37.9,1c1.1-0.4,2.1-1,2.9-1.7c0.8-0.7,1.6-1.3,2.5-2c-0.5-2.2-1.2-4.2-2.2-6c-1-1.8-3.1-2.6-6.2-2.4c-0.5-0.9-0.8-2-1-3.4 c-0.2-1.3-0.5-2.6-0.8-3.7c-0.3-1.1-0.8-2.1-1.3-2.9c-0.6-0.8-1.5-1.1-2.9-0.8l-1-64.1c0.9-2,1.2-4.2,1-6.7c1.6,0.5,3,0.8,4.4,1.2 c1.3,0.3,2.7-0.1,4-1.2c-1.3,0.2-2.3-0.1-2.9-1c-0.6-0.9-0.8-2-0.8-3.2c0-1.2,0.3-2.4,0.8-3.5c0.6-1.1,1.2-1.8,1.8-2 c1.1,4,1.9,6.5,2.4,7.4c0.4-1.6,0.6-2.8,0.5-3.7c-0.1-0.9,0.2-2.6,0.8-5c-0.5-0.9-1.3-1.2-2.7-1c-1.3,0.2-2.1-0.2-2.4-1.3 c-0.7-2.5-0.6-4.6,0.3-6.5c0.9-1.9,1.8-3.7,2.7-5.5c0.9-1.8,1.5-3.6,1.7-5.5c0.2-1.9-0.6-4.1-2.3-6.5c-0.5,1.3-1.2,2.5-2.4,3.4 c-0.7-0.7-1-1.3-1-1.8c0-0.6,0.1-1.1,0.3-1.7c0.2-0.6,0.3-1.1,0.2-1.5c-0.1-0.4-0.7-0.8-1.8-1c-0.2,2.2-0.9,4.2-2,5.9 c-1.1,1.7-2.2,3.4-3.4,5.2l-0.3-17.5c0.7,1.1,1.3,2,2,2.5c0.7,0.6,1.5,0.3,2.4-0.8c-0.9,0-1.7-0.6-2.4-1.7c-0.7-1.1-1.3-1.9-2-2.4 l-1-68.5c1.6,0.7,3,1.7,4.4,3c-0.2-2.7-1.5-4.9-3.7-6.7l29.9-0.3c0,0.7,0.6,1.8,1.7,3.4c0-0.9,0.3-1.3,1-1.3c0.7,0,1.1-0.3,1.3-1 c-0.9,0-1.3-0.4-1.3-1.3h3.4c0.4,2.5,1.8,3.7,4,3.7c-0.2-1.1,0.1-1.8,0.8-2.2c0.8-0.3,1.4-0.8,1.8-1.5h4.4l2,0.3 c-0.5,0.5-0.6,1.1-0.3,2h0.3v10.7c-1.1-1.1-2.2-2.1-3.4-2.9c-1.1-0.8-2.6-0.5-4.4,0.8c1.3,0.9,2.7,1.8,4,2.9c1.3,1,2.6,2.1,3.7,3.2 l1,61.4c-1.1-0.9-2.2-1.6-3.4-2c-1.1-0.4-2.5-0.3-4,0.3c1.6,0.7,2.4,1.6,2.5,2.7c0.1,1.1-0.2,2.3-0.8,3.5c-0.7,1.2-1.5,2.4-2.4,3.4 c-0.9,1-1.6,1.8-2,2.5c1.8,1.6,3.5,3.5,5,5.9c1.6,2.4,2,4.4,1.3,6.2c-0.5,0.9-1.3,1.2-2.7,0.8c-1.3-0.3-2.1,0.3-2.3,1.8 c-1.6-0.7-2.4-1.9-2.4-3.7c0.7-0.2,1.4-0.3,2.2-0.3c0.8,0,1.3-0.3,1.5-1c-1.3-0.9-2.2-1.1-2.5-0.5c-0.3,0.6-1.2,0.3-2.5-0.8 c0,1.8-0.4,3.8-1.2,6c-0.8,2.2-1.5,4.3-2,6.2c-0.6,1.9-0.7,3.4-0.3,4.4c0.3,1,1.5,1.2,3.5,0.5c-0.7-1.3-0.6-2.5,0.2-3.5 c0.8-1,1.7-1.8,2.9-2.5c1.1-0.7,2.3-1.3,3.5-2c1.2-0.7,2-1.6,2.2-2.7c0.4,0.7,0.9,1.5,1.5,2.5c0.6,1,1.2,1.7,1.8,2.2 c0-1.6,0.2-2.7,0.5-3.4c0.3-0.7,0.6-1.2,0.8-1.5c0.2-0.3,0.3-0.7,0.2-1.2c-0.1-0.4-0.6-1.2-1.5-2.4c1.3-0.7,2.6-0.9,3.7-0.8 c1.1,0.1,2.1,0.3,3,0.7c0.9,0.3,1.7,0.5,2.5,0.5c0.8,0,1.4-0.6,1.8-1.7c-0.7-0.4-1.7-0.7-3.2-0.8c-1.5-0.1-2.4-0.6-2.9-1.5 c1.1,0,1.8-0.3,2.2-1s0.6-1.5,0.8-2.5c0.2-1,0.4-2,0.5-2.9c0.1-0.9,0.5-1.7,1.2-2.4c-1.1-0.4-2.1-0.1-2.9,1c-0.8,1.1-1.4,0.8-1.8-1 c0.2-1.1,0.7-1.7,1.3-1.8c0.7-0.1,1.8-0.1,3.4,0.2c1.6,0.2,2.8,0,3.7-0.7c0.4,1.1,0.6,1.9,0.3,2.4c-0.2,0.5-0.6,0.8-1.2,1 c-0.6,0.2-1,0.5-1.3,0.8c-0.3,0.3-0.4,1-0.2,1.8c3.1-0.9,7.2-1.5,12.1-1.7c4.9-0.2,10.3-0.9,16.1-2c0-0.9-1-1.5-3-1.7 c-2-0.2-3.2-0.7-3.5-1.3c-0.3-0.7,0.2-2,1.5-4c-2,0.2-3.8,0.2-5.4-0.2c-1.6-0.3-2.6-1.2-3-2.5c-1.1,1.8-1.4,3.4-0.8,4.9 c0.6,1.5,1.2,3.1,1.8,4.9c-3.6,0.5-6.6,0.6-9.1,0.3c-2.5-0.2-3.5-1.9-3-5c-3.4,1.1-6,1.1-8.1,0c-2-1.1-3.9-2.4-5.7-3.7l25.5-38.9 c0.4,2,1.1,3.9,1.8,5.5c0.8,1.7,2,3.1,3.5,4.2c0.2-3.4,0.1-6-0.5-7.9c-0.6-1.9,0.4-3.3,2.9-4.2c-1.1-0.4-1.6-1.5-1.3-3 c0.2-1.6,0.1-2.8-0.3-3.7l5.4-8.4c0,1.3,0.8,1.9,2.4,1.7c0-2.2-0.2-3.7-0.7-4.4l3-4.7c0.7,0.7,1.1,1.2,1.3,1.7 c0-0.4-0.1-0.9-0.2-1.5c-0.1-0.6-0.2-1.1-0.2-1.5l5.7-8.7c0.7,0,1.5,0.1,2.5,0.3c1,0.2,2.4,0.3,4.2,0.3c-1.6-1.6-3.2-2.7-5-3.4 l2.4-3.7h1c0.7,1.1,1.5,1.8,2.4,2.2c0.9,0.3,1.6-0.1,2-1.2c-0.5-0.2-0.9-0.6-1.3-1l24.5-0.7c-1.6,5.4-3.7,10.4-6.4,15.1 c0,2.7,1.5,4.8,4.5,6.2c3,1.5,5.2,1.8,6.5,1.2c-0.9-0.2-1.3-1.5-1.3-3.7c-1.3,0.2-2.6,0.6-3.7,1c-1.1,0.5-1.9-0.3-2.4-2.4 c1.6-1.1,3.2-1.1,5,0c0-1.8-0.5-3.1-1.5-4c-1-0.9-1.7-1.9-2.2-3c1.3-1.1,2.7-2.6,4-4.5c1.3-1.9,2.5-3.9,3.4-5.9l12.8-0.3 c0.7,0.7,1.7,1,3,1v-1l4-0.3l0.3,3l-66.5,99l16.1,24.5h-0.3c0,2.2-0.2,3.8-0.7,4.5c-0.5,0.8,0.2,1.7,2,2.9c1.1-0.7,2.9,0,5.4,2 L724,555.7z M565.2,466.8c-0.5-0.2-1-0.2-1.7,0.2c-0.7,0.3-1.3,0.6-2,0.8v-3c1.3-0.4,1.8-1.8,1.3-4c-0.7-0.2-1.1-0.2-1.3,0v-12.4 c1.1,0,1.7-0.2,1.8-0.7c0.1-0.4,0.1-0.9,0-1.5c-0.1-0.6-0.1-1.1,0-1.5c0.1-0.4,0.7-0.8,1.8-1c0.4,1.6,0.7,2.7,0.8,3.4 c0.1,0.7,0.3,2.4,0.5,5c-1.8,0-3,0.8-3.7,2.4c0.9,0.7,1.7,1.3,2.5,1.8c0.8,0.6,1.2,1.6,1.2,3.2c-1.3-0.2-2.1-0.1-2.2,0.3 c-0.1,0.5,0,1,0.3,1.7c0.3,0.7,0.6,1.5,0.8,2.5C565.8,464.9,565.7,465.9,565.2,466.8z M562.9,546c0.4,0.9,0.9,2,1.3,3.4 c-0.5,0.7-0.7,1.2-0.8,1.7c-0.1,0.5-0.3,0.9-0.5,1.3V546z M564.2,522.8c-0.5,1.6-0.4,2.6,0.2,3c0.6,0.5,1.3,0.6,2.3,0.5 c1-0.1,2-0.4,3-0.8c1-0.4,1.5-1,1.5-1.7c-1.8,0.5-3,0.3-3.5-0.5C567.2,522.6,566,522.4,564.2,522.8z M566.6,349.6 c-0.5,2.9,0.8,4.1,3.7,3.7C570.3,350.8,569,349.6,566.6,349.6z M566.6,359.3c0.9,0.5,1.7,0.5,2.5,0.2c0.8-0.3,1.3-0.8,1.7-1.5 s0.5-1.3,0.5-2c0-0.7-0.3-1.1-1-1.3c-0.2,1.1-0.8,2-1.7,2.7C567.7,358,567,358.7,566.6,359.3z M571.3,542.3c2.2,0.5,3.4-0.2,3.5-2 c0.1-1.8,0.2-3.6,0.2-5.4c-1.6,0-2.7,0.5-3.4,1.3c-0.7,0.9-1.6,1.7-2.7,2.4C570.5,538.8,571.3,540.1,571.3,542.3z M570.3,360.7 c0.2,1.1,1.3,2.4,3.4,3.7c2,1.3,3.2,2.6,3.5,3.7c0.3,1.1,0.1,2.7-0.8,4.7c1.1,0.2,1.8,0,2.2-0.7c0.3-0.7,0.8-1.2,1.5-1.7 c-1.1-1.8-2-3.7-2.7-5.9c-0.7-2.1-1.8-3.9-3.4-5.2c0,1.1-0.1,1.8-0.2,2c-0.1,0.2-0.3,0.3-0.7,0.2c-0.3-0.1-0.7-0.3-1.2-0.7 C571.5,360.5,570.9,360.4,570.3,360.7z M571.3,549.4c2.2,0.2,3.1-0.9,2.7-3.4c-1.1,0.2-2,0-2.5-0.7c-0.6-0.7-1-0.4-1.2,0.7 C572.3,546.7,572.6,547.8,571.3,549.4z M571.3,424.1c1.1,1.1,1.9,2.6,2.3,4.4c0.4,1.8,1.7,2.8,3.7,3c0-1.6,0.1-3,0.2-4.4 c0.1-1.3,0.5-2.4,1.2-3H571.3z M573.9,452c-0.9,1.1-1.2,1.9-1,2.4c0.2,0.5,0.6,0.7,1.2,0.7c0.6,0,0.9-0.3,1.2-0.8 C575.5,453.6,575.1,452.9,573.9,452z M576.3,419.1c-0.2-1.1-0.2-2.4,0-3.7c0.2-1.3-0.6-1.7-2.4-1 C573.9,416.9,574.7,418.4,576.3,419.1z M599.5,476.5c0.2-2.5-0.1-4.4-1-5.9c-0.9-1.5-1.9-2.7-3-3.7c-1.1-1-2.4-2-3.7-2.9 c-1.3-0.9-2.5-2-3.4-3.4c-2,1.1-3.9,1.3-5.7,0.7c-1.8-0.7-3.9-1.3-6.4-2c-0.2,0.9-0.6,1.6-1,2.2c-0.5,0.6-0.6,1.4-0.3,2.5 c3.6-0.7,6.6-0.8,9.1-0.3c2.5,0.5,4.6,1.3,6.4,2.5c1.8,1.2,3.4,2.7,4.7,4.5C596.4,472.6,597.9,474.5,599.5,476.5z M581,555.7 c-0.2-1.6-0.2-2.8,0.2-3.7c0.3-0.9,0.7-1.8,1.2-2.7c-1.6,0.5-2.5,0.3-2.9-0.5c-0.3-0.8-1.4-0.9-3.2-0.5c0.2,1.8,0.9,3.1,2,4 C579.4,553.3,580.3,554.4,581,555.7z M580,389.9c0-0.2,0.1-0.7,0.3-1.3c0.2-0.7,0.1-1.5-0.5-2.4c-0.6-0.9-1-0.9-1.2,0 c-0.5,2.5-0.5,4,0,4.5C579.1,391.3,579.5,391,580,389.9z M578.6,352.3c-0.2,0.9-0.2,1.8,0.2,2.7c0.3,0.9,0.7,0.8,1.2-0.3 c0.2-0.9,0.1-1.8-0.3-2.7C579.2,351,578.9,351.2,578.6,352.3z M584.7,537.3c0.2-1.6,0.2-2.9,0-4c-0.2-1.1-1-1.8-2.3-2 c-1.1,0.9-1.5,2.2-1.2,4C581.5,537.1,582.7,537.7,584.7,537.3z M583.7,372.8h2.3v-2.4h-2.3V372.8z M588.4,354.6 c-0.7-0.2-1.1-0.7-1.2-1.3c-0.1-0.7-0.2-1.4-0.2-2.2c0-0.8-0.2-1.5-0.5-2c-0.3-0.6-1-0.7-1.8-0.5c0.2,0.5,0.4,1.2,0.7,2.2 c0.2,1,0.5,1.9,0.8,2.7c0.3,0.8,0.7,1.3,1,1.7C587.5,355.5,587.9,355.3,588.4,354.6z M587,546c1.3,0.5,2,1.5,1.8,3.2 c-0.1,1.7,0.5,2.6,1.8,2.9c0.2-0.9,0.3-1.9,0.3-3c0-1.1-0.2-2.1-0.7-2.9c-0.5-0.8-1-1.2-1.5-1.3C588.3,544.7,587.7,545.1,587,546z M589.7,370.4c-0.7,1.3-0.9,2.4-0.7,3.2c0.2,0.8,0.6,1.2,1.2,1.3c0.6,0.1,0.9-0.2,1-0.8C591.3,373.4,590.8,372.2,589.7,370.4z M594.4,555.7c0.2-0.7,0.1-1.2-0.5-1.7c-0.6-0.4-1.1-0.7-1.7-0.8c-0.6-0.1-1-0.1-1.2,0.2c-0.2,0.2,0.1,0.6,1,1 c0.9,0,1.4,0.5,1.5,1.5C593.7,556.9,594,556.9,594.4,555.7z M595.8,434.9c-0.5,1.6,0.2,2.3,1.8,2.2c1.7-0.1,2.3-0.8,1.8-2.2 c-0.2-0.4-0.8-0.7-1.8-0.8C596.6,433.9,596,434.2,595.8,434.9z M605.5,375.4c-0.2-3.1-1.3-5.1-3.2-6c-1.9-0.9-3.6-2.1-5.2-3.7 C597.8,371.3,600.6,374.5,605.5,375.4z M600.5,418.1c1.1-0.2,2.4-0.3,3.9-0.2c1.5,0.1,1.8-0.7,1.2-2.5 C602.4,414.9,600.7,415.8,600.5,418.1z M603.2,455.7c-0.7,1.3-0.8,2.9-0.5,4.7c0.3,1.8,0.9,3.4,1.7,4.9c0.8,1.5,1.8,2.6,3.2,3.5 c1.3,0.9,2.7,1,4,0.3c-2-1.8-3.5-4.1-4.4-6.9C606.3,459.4,604.9,457.3,603.2,455.7z M604.2,519.1c-0.7,0.9-1,1.8-1,2.9 s0.8,1.6,2.3,1.8c-0.2-0.9-0.3-1.8-0.2-2.9C605.4,520,605.1,519.4,604.2,519.1z M605.5,552c-0.5,0.7-0.5,1.2-0.2,1.7 c0.3,0.5,0.8,0.7,1.3,0.8c0.6,0.1,1.1,0.1,1.7-0.2c0.6-0.2,0.8-0.7,0.8-1.3c-0.9,0-1.5-0.2-1.7-0.7 C607.3,551.9,606.6,551.8,605.5,552z M621.3,426.5c-0.2-1.8-0.2-3.8,0-6c0.2-2.2-0.6-3.5-2.4-3.7c0.7,1.6,0.9,2.6,0.8,3 c-0.1,0.5-0.3,0.8-0.7,1c-0.3,0.2-0.7,0.4-1.2,0.5c-0.5,0.1-0.9,0.6-1.3,1.5c1.1,0.5,1.7,1.3,1.7,2.5 C618.3,426.5,619.3,426.9,621.3,426.5z M623.6,452c0,1.8,0.9,3,2.7,3.7C626.3,453.9,625.4,452.7,623.6,452z M637.1,416.7 c0.2-0.9,0.2-1.8-0.2-2.7c-0.3-0.9-0.6-0.8-0.8,0.3c-0.2,0.9-0.2,1.8,0.2,2.7C636.6,418,636.8,417.9,637.1,416.7z M639.4,386.2 c0.2-0.7,0.1-1.5-0.3-2.4l1.7-2.7c0.2,1.1,0.3,2.2,0.3,3.2S640.5,386,639.4,386.2z M642.1,478.9c0-1.1,0.3-1.6,0.8-1.5 c0.6,0.1,1.1,0.4,1.5,0.8c0.4,0.5,0.9,0.7,1.5,0.8c0.6,0.1,0.8-0.4,0.8-1.5c-1.3-1.8-2.3-2.7-2.9-2.9c-0.6-0.1-2.1-0.4-4.5-0.8 C639,477,639.9,478.6,642.1,478.9z M642.1,403.3c0.4,0,0.8,0.3,1,1c0.2,0.7,0.4,1.3,0.7,1.8c0.2,0.6,0.4,0.9,0.7,1 c0.2,0.1,0.7-0.4,1.3-1.5c-0.5,0-0.8-0.3-1-1c-0.2-0.7-0.5-1.3-0.7-1.8c-0.2-0.6-0.5-0.9-0.8-1 C642.9,401.7,642.5,402.2,642.1,403.3z M642.1,472.8c0.9,0.5,1.5,0.5,1.8,0c0.3-0.4,0.5-1,0.5-1.7c0-0.7-0.2-1.3-0.5-1.8 c-0.3-0.6-1-0.6-1.8-0.2V472.8z M669.6,502c0-1.1,0.2-1.8,0.5-2.2c0.3-0.3,0.7-0.8,1.2-1.5c-1.8,0.5-2.8,0.1-3-1.2 c-0.2-1.2-1.2-1.6-3-1.2l-3.7,3.7c-0.2-0.9-0.1-1.8,0.3-2.7c0.4-0.9,0.9-1.7,1.5-2.5c0.6-0.8,0.8-1.5,0.8-2.2s-0.6-1.5-1.7-2.4 c-0.9,1.1-1.3,2.7-1.2,4.7c0.1,2-0.6,3.2-2.2,3.7c-1.1,0.2-1.8,0-2-0.7c-0.2-0.7-0.4-1.3-0.5-2c-0.1-0.7-0.3-1.2-0.5-1.7 c-0.2-0.4-0.9-0.6-2-0.3c-1.1,0-1.1,0.6,0,1.7c1.1,1.1,1.1,1.7,0,1.7c-1.1-0.2-2-0.7-2.7-1.3c-0.7-0.7-1.8-1-3.4-1 c-0.9,0.7-2,1.2-3.4,1.5c-1.3,0.3-1.9,1.5-1.7,3.5c1.8-0.9,3.4-1.3,4.9-1.2c1.5,0.1,3.4,0.7,5.9,1.8c2.5,1.1,4.3,1.7,5.4,1.7 c0.9,0,1.8-0.3,2.9-0.8c1-0.6,2-1,2.9-1.3c0.9-0.3,1.7-0.4,2.5-0.2C668.2,499.9,669,500.7,669.6,502z M643.1,415.4 c1.3-0.2,2.2,0.1,2.5,0.8c0.3,0.8,0.7,1.4,1.2,1.8c1.3-1.6,1.4-3,0.2-4.2c-1.2-1.2-2.1-2.7-2.5-4.5c-0.9,1.6-1.2,2.5-0.8,2.9 S643.8,413.6,643.1,415.4z M646.8,420.4c-1.1,1.1-1.2,2.1-0.3,2.9c0.9,0.8,1.9,1.4,3,1.8C649.9,422.2,649,420.7,646.8,420.4z M650.5,426.5c0.9,0.2,1.3,0.5,1.3,0.7c0,0.2-0.5,0.7-1.3,1.3c-0.9,0.7-1.2,1.2-1,1.7c2.9,0.9,4.9,1.3,5.9,1.3c1,0,2.6,0.8,4.9,2.4 c0.9-8.1,0.5-15.3-1.2-21.7s-3.8-13.8-6.2-22.3c0.9,0,1.5-0.2,1.7-0.7c0.2-0.4,0.9-0.6,2-0.3c-0.5-0.9-0.7-2.5-0.7-4.7 c0-2.2-0.2-3.9-0.7-5c-0.5-1.1-1.2-2-2.3-2.7c-0.5,8.1-0.5,15.9,0,23.5c0.4,7.6,2.1,15.7,5,24.2c-1.3,1.6-2.6,2.1-3.9,1.5 C652.8,425.1,651.6,425.4,650.5,426.5z M650.5,526.5c0.7,1.6,1.2,2.2,1.7,2c0.4-0.2,0.7-0.7,0.7-1.3c0-0.7-0.2-1.2-0.5-1.7 C652,525.1,651.4,525.4,650.5,526.5z M651.8,438.6c0.7,0,1.2,0.3,1.5,0.8c0.3,0.6,1.1,0.7,2.2,0.5c0-1.8-0.9-3-2.7-3.7 c0,0.7-0.2,1.1-0.5,1.3C652,437.8,651.8,438.1,651.8,438.6z M652.8,366.7c-0.9,1.1-1,2.6-0.3,4.5c0.7,1.9,1.7,2.1,3,0.5 c-0.7,0-0.9-0.6-0.7-1.7c0.2-1.1,0.2-2,0-2.5C654.6,367,654,366.7,652.8,366.7z M656.5,541c1.1,2.2,1.7,3.9,1.7,5l-3-5H656.5z M659.2,393.6c-0.2-1.1-0.4-2.1-0.5-3c-0.1-0.9-0.8-1.1-2.2-0.7v2.4c0.7,0,1.2,0.2,1.5,0.5C658.4,393.1,658.8,393.3,659.2,393.6z M661.6,542.3c0-2-0.8-3.2-2.4-3.7C659,540.4,659.8,541.6,661.6,542.3z M665.3,482.5c-2.9-0.7-4.5-0.1-4.7,1.8 c-0.2,1.9,0.9,2.9,3.4,2.9C663.9,485,664.4,483.4,665.3,482.5z M663.9,365.7c0-2-0.8-3.2-2.4-3.7 C661.6,363.8,662.4,365,663.9,365.7z M662.6,403.3c1.8,2.5,3.1,3.5,4,3c0.9-0.4,1.3-1.2,1.3-2.4c0-1.1-0.5-2-1.3-2.7 C665.7,400.6,664.4,401.3,662.6,403.3z M671.3,496c0-0.9,0.1-1.6,0.3-2.2c0.2-0.6,0.4-1.1,0.7-1.5c-1.8,0.5-3,0.3-3.5-0.5 c-0.6-0.8-1.4-0.6-2.5,0.5c-0.2,1.6,0.3,2.5,1.5,2.7C669,495.2,670.2,495.5,671.3,496z M671.3,476.5c-1.6-1.1-2.3-2.4-2.3-3.7 L671.3,476.5z M673.7,544.7c-0.5,1.1-0.3,2.5,0.3,4c0.7,1.6,1.3,1.5,2-0.3c-1.1,0-1.6-0.6-1.3-1.7 C674.9,545.6,674.6,544.9,673.7,544.7z M673.7,486.2c0,3.1,0.8,5.2,2.4,6c1.1-0.9,1.6-2.2,1.3-4 C677.1,486.5,675.9,485.8,673.7,486.2z M679.7,496c0,1.6-0.2,2.3-0.5,2.2c-0.3-0.1-0.8-0.4-1.5-1c-0.7-0.6-1.3-1-2-1.3 c-0.7-0.3-1.3,0.1-2,1.2c0.4,2.7,1.7,4.5,3.9,5.4c2.1,0.9,4.1,2,5.9,3.4c-0.2-2.2-0.7-4-1.5-5.2C681.1,499.3,680.4,497.8,679.7,496 z M683.4,366.7c0.2,1.3,0.2,2.6,0,3.7c-0.2,1.1-0.5,2.2-0.8,3.2c-0.3,1-0.4,1.8-0.2,2.5c0.2,0.7,1,1.2,2.4,1.7 c0-1.6,0.2-2.7,0.7-3.5c0.4-0.8,0.9-1.5,1.3-2c0.4-0.6,0.8-1.2,1-2c0.2-0.8,0-2-0.7-3.5H683.4z M859.3,445.6 c9.4,6,16.5,13.5,21.2,22.3c4.7,8.8,6.8,20.1,6.4,33.7c-0.2,3.8-0.5,7.4-0.8,10.9c-0.3,3.5-1.1,6.8-2.2,9.9c-0.9-1.3-1.5-2.4-1.7-3 c1.1-3.1,1-6-0.3-8.6c-1.3-2.6-3.5-4.3-6.4-5.2c0.2,2.9,0.6,5.7,1,8.4c0.4,2.7,0.8,5.4,1.2,8.1s0.5,5.4,0.5,8.1s-0.5,5.6-1.3,8.7 c-5.2,8.5-12.3,15.2-21.5,20.1c-9.2,4.9-20.1,8.3-32.9,10.1c0.4-1.6,0.8-3.1,1.2-4.7c0.3-1.6-0.1-2.8-1.2-3.7 c0.4,1.6,0.2,3.1-0.8,4.5c-1,1.5-1.7,2.9-2.2,4.2c-0.9,0.2-1.7,0.3-2.4,0.2c-0.7-0.1-1.3-0.1-2,0.2c-1.3-3.1-3-5.9-5-8.4 c1.8-1.3,3.6-2.5,5.5-3.5c1.9-1,3.9-2.2,5.9-3.5c-0.5-2.2-1.2-4.3-2.4-6.2c-1.1-1.9-3.2-2.9-6.4-2.9c-0.5-0.9-0.7-2.1-0.8-3.7 c-0.1-1.6-0.3-3-0.7-4.2c-0.3-1.2-1-2.1-1.8-2.7c-0.9-0.6-2.4-0.4-4.4,0.5c-0.2,1.1,0.2,2.2,1.2,3.4c1,1.1,1.7,2.9,2.2,5.4 c-1.8,4.5-3.2,7.9-4.2,10.2c-1,2.4-2.4,5.4-4.2,9.2c0.4,1.3,1,2.5,1.7,3.5s1.3,2.1,2,3.2c-1.8,0.2-3.4,0.3-4.9,0.2 c-1.5-0.1-3-0.2-4.5-0.2c-12.1-0.5-22.5-1.3-31.2-2.7c-8.7-1.3-17.1-2.9-25.2-4.7c-0.5-0.2-0.9-0.4-1.3-0.5 c-0.5-0.1-0.9-0.5-1.3-1.2l1-30.2c0-0.2,0.1-0.4,0.2-0.7c0.1-0.2,0.2-0.6,0.2-1h-0.3l0.3-8.7c0.2-1.6,0.4-2.4,0.7-2.5 c0.2-0.1,0.4-0.2,0.7-0.2l5,1v0.7c1.3,0.5,2.4,1.2,3.2,2.2c0.8,1,1.5,2,2,3c0.6,1,1.1,2,1.5,3c0.4,1,1.1,1.7,2,2.2 c0.4-0.7,0.9-1.6,1.3-2.7c0.4-1.1,1.3-2.4,2.7-3.7c0.7,0.2,1.5,0.1,2.4-0.5c0.9-0.6,1.7-0.7,2.3-0.5h1.7c0.4,0.5,0.7,0.9,0.7,1.3 c-0.2,1.1-0.8,1.8-1.8,2c-1,0.2-1.3,1.2-0.8,3c1.8,0.5,2.9,0,3.2-1.3c0.3-1.3,0.6-2.9,0.8-4.7c0.4,0,0.9,0.1,1.5,0.2 c0.6,0.1,1.2,0.2,1.8,0.2c0.9,2.2,1.8,4.3,2.7,6c-1.3,0.2-2.2,0.8-2.5,1.8s-0.8,2-1.5,2.9c1.8,1.8,3.1,2.8,3.9,3 c0.8,0.2,2.4-0.2,4.9-1.3c0,0.9,0.3,1.5,1,1.8c0.7,0.3,1.1,1,1.3,1.8c-2.5,2-3,4.6-1.7,7.9c1.3,3.2,2.9,5.7,4.7,7.2 c0-1.6,0.3-2.4,1-2.4c0.7,0,1.5,0.2,2.5,0.7c1,0.5,2,0.9,2.9,1.3c0.9,0.5,1.5,0.2,1.7-0.7c-0.5-1.3-1.4-2.4-2.9-3 c-1.5-0.7-2.3-1.9-2.5-3.7c1.1-0.2,2,0,2.5,0.7c0.6,0.7,1.1,0.5,1.5-0.7c-0.7-0.2-1-0.6-1-1.2c0-0.6,0.1-1.1,0.3-1.7 c0.2-0.6,0.3-1.1,0.2-1.7c-0.1-0.6-0.7-1.1-1.8-1.5c-0.2,1.1-0.3,2.2-0.3,3.2s-0.5,1.6-1.3,1.8c-1.3-0.2-2.3-1.1-2.9-2.7 c-0.6-1.6-1-3.3-1.3-5.2c-0.3-1.9-0.6-3.6-0.7-5c-0.1-1.5-0.3-2.6-0.5-3.5c0.7,0.9,1.5,1.3,2.3,1.2c0.9-0.1,1.5-0.2,1.8-0.3 c0.3-0.1,0.5,0.2,0.5,0.8c0.2,1.6-0.1,2.7-0.8,3.4c-0.8,0.7-1.4,1.6-1.8,2.7c1.6,1.1,3.7,1.6,6.4,1.3c0.2-2,0.2-3.5,0-4.5 c-0.2-1-0.5-1.8-0.8-2.5c-0.3-0.7-0.7-1.4-1-2.2c-0.3-0.8-0.5-1.8-0.5-3.2c-2.5-0.2-4.4,0.2-5.7,1.3c-1.3,1.1-3.5,1.3-6.4,0.7 c0.2-0.4,0.3-1.8,0.3-4c2.5,0.2,5.1,0.5,8.1,0.7c2.9,0.2,6.2,0.5,9.7,0.7c13.7,0.5,23.5-1,29.5-4.4c6-3.4,9.3-9.2,9.7-17.5 c0-3.1-0.5-5.8-1.3-8.1c-0.9-2.2-2.5-4.4-4.9-6.4c-2.4-2-5.5-4.1-9.4-6.2c-3.9-2.1-8.8-4.5-14.6-7.2l-18.8-8.7 c-2.2-1.1-4.4-2.2-6.5-3.2c-2.1-1-4.3-2.4-6.5-4.2l0.7-0.3c2.9,1.3,6,2.1,9.4,2.4c3.4,0.2,6.6,0.3,9.7,0.3c3.1,0,6.2,0.2,9.1,0.5 c2.9,0.3,5.5,1.5,7.7,3.5c-0.7-3.4,0.7-4.7,4-4c0.2,0.5,0.1,0.9-0.3,1.3c-0.5,0.5-0.9,0.8-1.3,1.2c-0.5,0.3-0.7,0.6-0.8,0.8 c-0.1,0.2,0.3,0.5,1.2,0.7c0-0.4,0.2-0.7,0.5-0.8c0.3-0.1,0.6,0.2,0.8,0.8c-1.1,0.5-2.5,0.9-4,1.3c-1.6,0.5-2.9,1-4,1.5 c-1.1,0.6-2,1.3-2.5,2.2c-0.6,0.9-0.5,1.9,0.2,3c2.2,0.7,5,0.1,8.4-1.8c3.4-1.9,4.8-5.2,4.4-9.9c1.6,0.5,3,0.8,4.4,1.2 c1.3,0.3,2.7-0.1,4-1.2c-1.3,0.5-2.3,0.2-2.9-0.7c-0.6-0.9-0.8-2-0.7-3.2c0.1-1.2,0.4-2.5,1-3.7c0.6-1.2,1.2-2,1.8-2.2 c0.2,3.1,0.9,5.7,2,7.7c0.7-1.6,0.9-2.8,0.8-3.7c-0.1-0.9,0.2-2.6,0.8-5c-0.5-0.9-1.3-1.3-2.7-1.2c-1.3,0.1-2-0.4-2-1.5 c-0.5-2.2-0.3-4.3,0.5-6.2c0.8-1.9,1.6-3.7,2.5-5.4c0.9-1.7,1.6-3.4,2.2-5c0.6-1.7,0.4-3.5-0.5-5.5c1.6,0.5,3,1.1,4.4,1.8 c1.3,0.8,2.7,1.6,4,2.5l17.1,7.7c0,1.8-0.5,3.8-1.3,6c-0.9,2.2-1.7,4.3-2.3,6c-0.7,1.8-0.9,3.2-0.7,4.4c0.2,1.1,1.5,1.3,3.7,0.7 c-0.7-1.3-0.6-2.5,0.2-3.4c0.8-0.9,1.8-1.7,3-2.5c1.2-0.8,2.5-1.5,3.7-2.2c1.2-0.7,2-1.6,2.2-2.7c0.4,0.7,1,1.6,1.7,2.7 c0.7,1.1,1.2,2,1.7,2.7C858.5,448.3,858.9,446.7,859.3,445.6z M738.1,518.8c0.4,2.5,0.8,4.8,1,6.9c0.2,2.1,1.3,3.4,3.4,3.9 c-0.2-2.5-0.6-4.6-1-6.4C741,521.4,739.9,519.9,738.1,518.8z M824.7,337.2c3.1,0.2,6.1,0.3,8.9,0.3c2.8,0,5.5,0.2,8.2,0.7 c0,1.8,0.7,3.2,2,4.4c0-0.9,0.3-1.3,1-1.3c0.7,0,1.1-0.3,1.3-1c-1.3,0-1.7-0.6-1-1.7h2.7c0.4,1.1,0.9,2.1,1.5,3 c0.6,0.9,1.5,1.3,2.9,1.3c-0.2-1.1,0-1.8,0.7-2.2c0.7-0.3,1.2-0.7,1.7-1.2c1.1,0.2,2.2,0.4,3.4,0.5c1.1,0.1,2.2,0.3,3.4,0.5v1.3 c1.3,0,2.3,0.3,2.9,1c0.6,0.7,1,1.4,1.3,2.2c0.3,0.8,0.8,1.6,1.3,2.4c0.6,0.8,1.4,1.3,2.5,1.5c0.9-2.9,1-5.3,0.3-7.1 c0.7,0.2,1.4,0.3,2.2,0.3c0.8,0,1.5,0.1,2.2,0.3c-1.1,0-1.5,0.7-1.2,2c0.3,1.3,1.3,1,2.9-1c-0.2-0.4-0.5-0.8-0.7-1 c0.7,0.2,1.2,0.4,1.7,0.5c0.4,0.1,1,0.3,1.7,0.5c0.7,0.5,1.2,1.6,1.7,3.4l-1,19.8c-0.2-0.2-0.7-0.3-1.3-0.3 c-0.2,0.2-0.5,0.6-0.8,1.2c-0.3,0.6-0.6,1.2-0.7,1.8c-0.1,0.7-0.1,1.3,0,2c0.1,0.7,0.6,1,1.5,1c0-0.7,0.4-1,1.3-1l-0.3,4 c-0.9,0-1.3,0.6-1.3,1.7c0.2,0.7,0.7,1,1.3,1l-0.3,9.4c-1.1,0.7-2.2,0.8-3.4,0.3c-7.2-1.6-14.4-2.9-21.7-3.9 c-7.3-1-15.2-1.6-23.7-1.8c0-1.8-0.1-3.1-0.3-4c-0.2-0.9-0.5-0.9-0.7,0c-0.2,0.9-0.3,1.6-0.3,2.2c0,0.6-0.1,1.1-0.3,1.5 c-9.4-0.4-17.1,0.6-23.2,3.2c-6,2.6-9.2,7.6-9.4,14.9c-0.2,1.6-0.1,3.5,0.3,5.7h-0.3c-0.2,1.8,0.1,3.8,0.8,6c0.8,2.2,0.4,3.9-1.2,5 c-0.7-0.4-1-1.6-1-3.5c0-1.9-0.2-3.2-0.5-4c-0.3-0.8-1-1.2-1.8-1.2c-0.7,1.3-1.5,2-2.3,1.8c-0.9-0.1-1.8-0.3-2.7-0.7 c-0.9-0.3-1.7-0.6-2.3-0.7c-0.7-0.1-1.2,0.5-1.7,1.8c3.8,1.3,7,3.2,9.6,5.5c2.6,2.4,5.4,4.4,8.6,6.2c0.4-1.6,0.6-2.7,0.3-3.5 c-0.2-0.8-0.5-1.5-0.8-2c-0.3-0.6-0.7-1.2-1.2-1.8c-0.5-0.7-0.6-1.6-0.3-2.7c0.4,0.5,1.1,1.3,2,2.7c0.4,0.9,1.1,1.3,2,1.3 c3.1,2.5,6.9,4.8,11.4,7.1c-0.5,1.8-1.2,3.4-2.4,4.7c-1.1,1.3-2.1,2.7-2.9,4c-0.8,1.3-1.4,2.7-1.8,4.2c-0.5,1.5-0.2,3,0.7,4.5 c1.6,0.2,2.5,0.1,2.7-0.3c0.2-0.4,0.3-0.9,0.3-1.5c0-0.6,0.1-1.1,0.2-1.7c0.1-0.6,0.7-0.8,1.8-0.8c0.4,1.3,0.7,2.4,0.8,3.2 c0.1,0.8,0.2,2.5,0.2,5.2c-1.6,0-2.8,0.9-3.7,2.7c0.9,0.7,1.7,1.3,2.4,1.8c0.7,0.6,1,1.6,1,3.2c-1.3-0.2-2.1-0.2-2.2,0.2 c-0.1,0.3,0,0.9,0.3,1.7c0.3,0.8,0.6,1.7,0.8,2.7c0.2,1,0,2-0.7,2.9c-0.5,0-1.1,0.1-1.8,0.3c-0.8,0.2-1.5,0.5-2,0.7 c-0.6,0.2-1.1,0.2-1.5-0.2c-0.5-0.3-0.6-1.2-0.3-2.5c0.2-0.2,0.6-0.3,1-0.3c0.4,0,0.9-0.1,1.3-0.2c0.4-0.1,0.8-0.4,1.2-1 c0.3-0.6,0.4-1.5,0.2-2.9c-1.3-0.2-2.3-0.1-2.9,0.3c-0.6,0.5-1.1,1-1.5,1.7c-0.5,0.7-0.9,1.4-1.3,2.2c-0.5,0.8-1.2,1.3-2.3,1.5 l0.3-5l-4.7-0.3c-0.5,1.1-0.3,1.9,0.3,2.4c0.7,0.5,0.6,0.9-0.3,1.3c-5.8-0.2-12-0.1-18.5,0.3c-6.5,0.5-12.3-0.2-17.5-2 c-1.6-1.3-3-2.6-4.4-3.9c-1.3-1.2-2.7-2.5-4-3.9c0.7-2,1.1-4.2,1.2-6.7c0.1-2.5,0.1-4.8,0-7.1c-0.1-2.2-0.3-4.3-0.5-6.2 c-0.2-1.9-0.3-3.3-0.3-4.2c2.9,0,4.2-1.2,4-3.7c-3.8-0.9-6.7-1.7-8.6-2.5c-1.9-0.8-4.4-1.4-7.6-1.8c-0.5-2.5-0.7-7.8-0.7-16.1 c0.4-0.7,0.6-1.2,0.3-1.7l1.3,0.3c0.9-0.7,1.1-1.3,0.7-2c-0.5-0.7-1-1.3-1.7-2c1.3-15,6.7-27.1,16.1-36.3c0.2,1.3,1.5,1.8,3.7,1.3 c0.2-2,0-3.6-0.7-4.7c3.4-2.7,7.2-5.3,11.4-7.7c0.4,0.5,1,0.2,1.7-0.7h-0.3c5.1-2.5,10.5-4.5,16.1-6c5.6-1.6,11.6-2.6,18.1-3v3.7 c1.8,0.5,3.2,1,4.4,1.7c1.1,0.7,2.1,1.6,3,2.7c-0.2-2.2-0.8-3.9-1.7-5c-0.9-1.1-2.1-2.2-3.7-3.4c2.5,0,5-0.1,7.6-0.2 C819.8,336.9,822.3,336.9,824.7,337.2z M745.8,540.6c1.1-4.7,0.4-7.9-2-9.7c-0.9,0.7-1.6,1.6-2,2.7c-0.5,1.1-0.6,2.2-0.5,3.2 c0.1,1,0.6,1.9,1.3,2.7C743.4,540.2,744.5,540.6,745.8,540.6z M746.9,436.5c0.7-0.2,1.4-0.4,2.2-0.7c0.8-0.2,1.4-0.6,1.8-1 c0.7,1.8,1,3.5,1,5c0,1.6-0.2,3.2-0.7,5c-0.9-1.3-1.7-2.7-2.5-4C747.9,439.6,747.3,438.1,746.9,436.5z M748.9,381.5 c1.3,1.3,2.2,1.8,2.7,1.3c0.4-0.4,0.8-1.1,1.2-2c0.3-0.9,0.7-1.6,1.2-2.2c0.4-0.6,1.5-0.3,3,0.8c-0.7-4-2.8-6.7-6.4-8.1 c-0.5,1.1-1,2.1-1.7,2.9c-0.7,0.8-1,2-1,3.5c0.7,0.7,1.6,1.1,2.7,1.3c1.1,0.2,1.3,1,0.7,2.4c-0.7,0.2-1.1,0.1-1.3-0.5 C749.6,380.4,749.3,380.6,748.9,381.5z M749.5,539.3c1.1-0.4,2-0.4,2.7,0.2c0.7,0.6,1.3,1.1,1.8,1.7c0.6,0.6,1.1,1,1.5,1.2 c0.4,0.2,1-0.2,1.7-1.3c-1.6-0.4-2.7-1.1-3.5-2c-0.8-0.9-1.6-1.9-2.5-3c-0.5,0.5-0.7,0.8-0.8,1.2c-0.1,0.3-0.4,0.3-0.8-0.2V539.3z M753.6,422.8c-0.2,1.6-1,1.8-2.4,0.7c-1.3-1.1-1.8-2.2-1.3-3.4c1.3-0.2,2,0.1,2,1C751.9,422,752.4,422.6,753.6,422.8z M753.6,537.3c1.3,0.9,2.8,1.3,4.4,1.2c1.6-0.1,2.6-0.4,3-0.8c-1.1-1.1-2-2.2-2.5-3.2c-0.6-1-1.6-1.7-3.2-2.2 c-0.2,1.1-0.6,2-1.2,2.5C753.5,535.3,753.3,536.2,753.6,537.3z M754.9,385.5c-0.5,3.1-0.2,5.6,0.7,7.4c0.9,1.8,2.7,2.7,5.4,2.7 c0.4-3.1,1.5-6.4,3.2-9.7c1.7-3.4,1.6-6.6-0.2-9.7c-0.5,1.1-1.1,2-1.8,2.7c-0.8,0.7-1.7,0.5-2.9-0.7c0.4,2,0.3,3.4-0.5,4 c-0.8,0.7-1.5,1.5-2.2,2.4c0.9,0.2,1.8,1.2,2.9,2.9c1,1.7,0.7,2.7-0.8,3.2c-1.3-0.2-1.9-1.1-1.7-2.5 C757.1,386.6,756.5,385.7,754.9,385.5z M757.9,413c0.2-0.7,0.9-1.3,2-2c1.1-0.7,1.6-1.2,1.5-1.5c-0.1-0.3-0.7-0.8-1.8-1.5 c0.2,0.9-0.2,1.6-1.2,2.2c-1,0.6-1.6,1.1-1.8,1.5C756.4,412.2,756.8,412.6,757.9,413z M762,367c-1.1,2-1.3,3.9-0.7,5.5 c0.7,1.7,2.5,2.4,5.4,2.2c0-2-0.3-3.7-0.8-5.2C765.3,368.1,764,367.3,762,367z M762.3,398.6c0.2-0.9,0.6-1.3,1.2-1.2 c0.6,0.1,1.2,0.3,1.8,0.5c0.7,0.2,1.3,0.3,1.8,0.2c0.6-0.1,1-0.8,1.2-2.2c-0.7-0.4-1.6-0.7-2.7-0.8c-1.1-0.1-2.1-0.1-2.9,0.2 c-0.8,0.2-1.3,0.6-1.7,1.2C760.8,397,761.2,397.7,762.3,398.6z M764.6,535.3c-1.1-1.1-1.9-1.6-2.4-1.3c-0.5,0.2-0.6,0.6-0.5,1.2 c0.1,0.6,0.4,1,1,1.2C763.4,536.5,764,536.2,764.6,535.3z M764.3,553.7c1.3-0.4,2.6-0.9,3.9-1.3c1.2-0.4,2.1-1.5,2.5-3 c-2-0.2-3.4,0.2-4.2,1.2C765.7,551.5,765,552.6,764.3,553.7z M774,378.8c0.4-1.1,1.1-2.2,1.8-3.2c0.8-1,1.2-2.4,1.2-4.2 c-1.1-0.2-1.9-0.2-2.4,0.2c-0.5,0.3-0.8,0.7-1.2,1c-0.3,0.3-0.7,0.7-1.2,1c-0.5,0.3-1.1,0.3-2-0.2c-0.2,1.8,0.1,3,0.8,3.7 C772,377.8,772.9,378.4,774,378.8z M782.4,420.1l-2.7-0.3v2.4l2.7,0.3V420.1z M785.1,374.1c-1.6,0.7-2.2,1.2-2,1.7 c0.2,0.5,0.7,0.7,1.3,0.7c0.7,0,1.2-0.2,1.7-0.5C786.6,375.6,786.2,375,785.1,374.1z M788.8,559.8c0.9,0,1.5,0.2,1.7,0.7 c0.2,0.5,0.9,0.6,2,0.3c0-1.6-0.8-2.8-2.4-3.7c0,0.7-0.2,1.2-0.5,1.5C789.3,558.9,789,559.3,788.8,559.8z M789.5,537.3 c0,1.8,0.7,3.2,2.2,4.2c1.5,1,2.4,0.5,2.9-1.5c-1.3-0.2-2.1-0.8-2.4-1.7C792,537.4,791.1,537.1,789.5,537.3z M791.2,527.2 c-0.2,3.4,0.6,5.2,2.4,5.4c-0.2-1.3-0.2-2.7,0-4C793.7,527.2,793,526.8,791.2,527.2z M798.2,536.6c-0.2,0.9-0.1,1.7,0.5,2.4 c0.6,0.7,1.3,1.2,2.2,1.5c0.9,0.3,1.7,0.5,2.4,0.3c0.7-0.1,1.1-0.7,1.3-1.8c-0.7,0-1.1-0.2-1.3-0.7c-0.2-0.4-0.4-0.9-0.5-1.3 c-0.1-0.4-0.3-0.8-0.5-1.2c-0.2-0.3-0.7-0.5-1.3-0.5C800.2,536.2,799.3,536.6,798.2,536.6z M804.9,562.5c1.6,0.9,2.4,3.1,2.4,6.7 c-1.3-0.5-2.1-1.2-2.4-2.4C804.7,565.7,804.7,564.2,804.9,562.5z M815.3,536.9c2.5,0.5,3.7-0.2,3.9-1.8c0.1-1.7,0.2-3.5,0.2-5.5 c-1.6-0.2-2.7,0.2-3.4,1.2c-0.7,1-1.6,1.8-2.7,2.5C815.3,533.7,816,534.9,815.3,536.9z M815.3,544c2.2,0.7,3.1-0.3,2.7-3 c-1.1,0-2-0.3-2.5-1c-0.6-0.7-1-0.4-1.2,0.7C816.4,541.3,816.7,542.4,815.3,544z M817,427.1c-0.9-0.7-1.1-1.7-0.7-3 c0.4,0.2,0.8,0.4,1.2,0.5c0.3,0.1,0.7,0.3,1.2,0.5C818.3,426.3,817.7,426.9,817,427.1z M817.4,350.3c0.9,0.5,1.7,0.5,2.5,0.2 c0.8-0.3,1.3-0.8,1.7-1.3c0.3-0.6,0.5-1.2,0.5-1.8s-0.3-1.1-1-1.3c-0.2,1.1-0.8,2-1.7,2.5C818.5,349,817.8,349.6,817.4,350.3z M817.7,340.2c-0.7,2.9,0.4,4.4,3.4,4.4C821.3,341.6,820.2,340.2,817.7,340.2z M821.4,444.9c-1.1,1.1-1.5,1.9-1.2,2.4 c0.3,0.5,0.8,0.7,1.3,0.7c0.6,0,0.9-0.2,1.2-0.7C823,446.8,822.5,446.1,821.4,444.9z M825.1,551c-0.2-2.9,0.3-5,1.7-6.4 c-1.6,0.2-2.5-0.1-2.9-0.8c-0.3-0.8-1.4-0.9-3.2-0.5c0,1.8,0.6,3.1,1.7,4C823.5,548.2,824.4,549.5,825.1,551z M826.8,364.4 c1.1,0.2,1.8,0,2.2-0.7c0.3-0.7,0.9-1.1,1.8-1.3c-1.1-2.2-2-4.4-2.7-6.5c-0.7-2.1-1.8-3.9-3.4-5.2c0,1.1-0.1,1.8-0.3,2 c-0.2,0.2-0.5,0.3-0.7,0.2c-0.2-0.1-0.6-0.3-1-0.7c-0.5-0.3-1-0.4-1.7-0.2c0.2,1.1,0.8,2,1.8,2.7s2,1.4,2.9,2.2 c0.9,0.8,1.6,1.7,2,2.9C828.2,360.8,827.9,362.3,826.8,364.4z M846.6,470.8c0.2-2.5-0.1-4.4-0.8-5.9c-0.8-1.5-1.8-2.7-3-3.9 c-1.2-1.1-2.5-2.2-3.9-3.2c-1.3-1-2.4-2.2-3-3.5c-2,1.1-3.9,1.3-5.7,0.7c-1.8-0.7-3.9-1.5-6.4-2.4c-0.2,0.9-0.6,1.6-1.2,2.2 c-0.6,0.6-0.7,1.4-0.5,2.5c3.8-0.7,6.9-0.7,9.4-0.2c2.5,0.6,4.5,1.5,6.2,2.9c1.7,1.3,3.2,3,4.5,4.9 C843.5,466.8,845,468.8,846.6,470.8z M829.4,532.6c0.2-1.8,0.2-3.2,0-4.4c-0.2-1.1-0.9-1.8-2-2c-1.1,0.7-1.6,2-1.3,4 C826.3,532.2,827.4,533,829.4,532.6z M831.1,346.2c0.2-0.9,0.2-1.8-0.2-2.9c-0.3-1-0.7-0.9-1.2,0.2c-0.2,0.9-0.2,1.8,0.2,2.9 S830.7,347.4,831.1,346.2z M831.8,541.3c1.1,0.5,1.6,1.5,1.3,3c-0.2,1.6,0.3,2.6,1.7,3c0.4-0.9,0.7-1.9,0.7-3 c0-1.1-0.2-2.1-0.5-2.9c-0.3-0.8-0.8-1.2-1.3-1.3C833.1,540,832.5,540.4,831.8,541.3z M836.8,362.3h-2.4l-0.3,2.4h2.3L836.8,362.3z M838.8,551.7c0.2-0.9,0.1-1.6-0.5-2c-0.6-0.4-1.2-0.7-1.8-0.8c-0.7-0.1-1.1-0.1-1.3,0.2c-0.2,0.2,0.2,0.7,1.3,1.3 c0.9,0,1.4,0.5,1.5,1.5C838.1,552.9,838.4,552.8,838.8,551.7z M836.2,339.8c0.2,0.5,0.4,1.2,0.7,2.2c0.2,1,0.4,2,0.7,2.9 c0.2,0.9,0.5,1.5,0.8,1.8c0.3,0.3,0.7,0.2,1.2-0.5c-0.7-0.2-1.1-0.7-1.2-1.3c-0.1-0.7-0.2-1.4-0.2-2.2c0-0.8-0.1-1.5-0.3-2 C837.6,340.1,837.1,339.8,836.2,339.8z M840.5,362.7c-0.9,1.3-1.2,2.4-0.8,3.2c0.3,0.8,0.7,1.2,1.2,1.3c0.4,0.1,0.8-0.2,1-0.8 C842.1,365.7,841.6,364.5,840.5,362.7z M849.9,444.9c-1.6-0.7-2.4-1.9-2.4-3.7c0.4-0.2,0.9-0.3,1.3-0.2c0.4,0.1,0.9,0.1,1.3-0.2 l4,2c-0.5,0.5-1.2,0.6-2.3,0.3C850.8,443,850.1,443.6,849.9,444.9z M856.3,368.1c0-2.9-1-4.9-2.9-6c-1.9-1.1-3.6-2.6-5.2-4.4 C848.7,363.2,851.4,366.7,856.3,368.1z M849.9,514.4c-0.7,1.1-1,2.2-1,3.2s0.7,1.6,2,1.8c-0.2-0.9-0.2-1.9,0-3 C851.2,515.3,850.8,514.7,849.9,514.4z M849.9,548c-0.5,0.9-0.5,1.6-0.2,2c0.3,0.5,0.8,0.7,1.5,0.8c0.7,0.1,1.3,0,1.8-0.3 c0.6-0.3,0.8-0.8,0.8-1.5c-1.1,0-1.8-0.2-2-0.7C851.7,547.9,851,547.8,849.9,548z M850.9,450c-0.7,1.3-0.8,2.9-0.5,4.7 c0.3,1.8,0.9,3.5,1.7,5c0.8,1.6,1.8,2.8,3.2,3.7c1.3,0.9,2.7,1,4,0.3c-2.2-2-3.8-4.4-4.5-7.2C854,453.7,852.7,451.5,850.9,450z M865.4,354.6c-1.1,0.5-2.1,0.3-2.9-0.3c-0.8-0.7-1.6-1.5-2.5-2.4c-0.9-0.9-1.9-1.6-3-2c-1.1-0.4-2.4-0.2-3.7,0.7 c2,1.1,3.9,2.5,5.7,4.2c1.8,1.7,3.6,3.2,5.4,4.5c0-0.9,0.3-1.3,1-1.3s1.1-0.3,1.3-1C865.8,356.8,865.4,356,865.4,354.6z M858.7,522.2H856v2.7h2.7V522.2z M862.4,549.4c0.9-1.6,0.5-2.4-1.2-2.5c-1.7-0.1-2.5,0.4-2.5,1.5c1.1,0,1.6,0.3,1.3,1H862.4z M866.4,499.3c0,2,0.3,3.6,1,4.9c0.7,1.2,1.6,2.4,2.7,3.5c-0.2-1.8-0.5-3.5-0.8-5.2S867.9,499.8,866.4,499.3z M870.7,373.4 c-0.7,6.9,1.5,10.7,6.4,11.4c-0.5-2.2-0.9-4.7-1.3-7.4C875.3,374.8,873.7,373.4,870.7,373.4z"></path> </g> <g id="Watch"> <path id="WatchPath" fill="#5E5E5E" d="M211.4,166.9c5,0,7.5,2.7,7.5,8c0,2.3-0.4,5.1-1.2,8.4c-0.8,3.3-1.7,7.3-2.7,12 c-1,4.7-1.9,10.4-2.7,16.9c-0.8,6.6-1.2,14.4-1.2,23.5c0,3.4,0.1,6.1,0.3,8.1c0.2,2,0.3,3.8,0.4,5.3c0.1,1.5,0.2,2.8,0.4,3.9 c0.2,1.1,0.3,2.2,0.3,3.5c0,5-0.8,10.4-2.3,16.1c-1.5,5.8-2.3,11.2-2.3,16.4c0,3.6,0.6,7.1,1.9,10.7c1.2,3.6,1.9,6.1,1.9,7.7 c0,2.5-0.3,4.2-0.9,5.1c-0.6,0.9-1.6,1.3-3.1,1.3c-2.3,0-3.5-1.4-3.5-4.3c0-1.4,0.1-2.9,0.4-4.4c0.3-1.5,0.4-3,0.4-4.4 c0-2.7-0.5-4.7-1.6-6s-2.3-2-3.7-2c-2.1,0-3.6,0.7-4.3,2.1c-0.7,1.4-1.1,3.5-1.1,6.1c0,2.5,0.8,4.9,2.3,7.2 c1.5,2.3,2.3,4.4,2.3,6.4c0,1.2-0.2,2.1-0.7,2.7c-0.4,0.5-1,1.3-1.6,2.3c-0.6,1-1.3,2.5-2,4.5c-0.7,2-1.2,5.2-1.6,9.5 c0,0.7-0.2,1.8-0.7,3.2c-0.4,1.4-0.9,3-1.5,4.7c-0.5,1.7-1,3.4-1.5,5.2c-0.4,1.8-0.7,3.4-0.7,4.8c0,1.1,0.2,2.4,0.5,4 c0.4,1.6,0.8,3.3,1.3,5.1c0.5,1.8,1,3.5,1.3,5.2c0.4,1.7,0.5,3.2,0.5,4.4c0,6.4-0.3,11-0.9,13.7c-0.6,2.8-2,4.1-4.1,4.1 c-1.6,0-3.1-0.8-4.4-2.3c-1.3-1.5-2-3.8-2-6.8c0-2.5,0.3-5.6,0.9-9.3c0.6-3.7,0.9-7.1,0.9-10.1c0-2.5-0.4-4.5-1.3-6.1 c-0.9-1.6-2.7-2.4-5.3-2.4c-1.1,0-1.8,0.7-2.1,2.1c-0.4,1.4-0.7,3-0.9,4.7c-0.3,1.7-0.8,3.2-1.5,4.7c-0.7,1.4-1.9,2.1-3.5,2.1 c-2,0-3.4-1.7-4.4-5.1c-1-3.4-1.5-7.3-1.5-11.7c0-3.4,0.1-6.7,0.4-10c0.3-3.3,0.4-5.6,0.4-7.1c0-5.2-0.3-8.7-0.8-10.7 c-0.5-2-1.5-2.9-2.9-2.9c-0.7,0-1.6,0.4-2.8,1.3c-1.2,0.9-2.1,1.3-2.8,1.3c-1.4,0-2.1-1.7-2.1-5.1c0-3.9,0.4-7.8,1.2-11.7 c0.8-3.9,1.2-8.1,1.2-12.5c0-2.1-0.2-4.4-0.5-6.8c-0.4-2.4-0.5-6.7-0.5-12.9c0-8.2-1.4-12.3-4.3-12.3c-2,0-3.5,0.8-4.5,2.3 c-1.1,1.5-1.9,3.4-2.4,5.7c-0.5,2.3-0.8,4.8-0.9,7.3c-0.1,2.6-0.1,5-0.1,7.3c0,4.3,0.1,7.4,0.3,9.3c0.2,2,0.3,4.2,0.3,6.7 c0,1.8-0.2,4-0.5,6.7c-0.4,2.7-0.7,5.5-1.1,8.4c-0.4,2.9-0.7,5.7-1.1,8.4c-0.4,2.7-0.5,4.8-0.5,6.4c0,4.1,0.8,8,2.4,11.6 c1.6,3.6,2.4,6.7,2.4,9.2c0,5.3-0.5,9.1-1.6,11.2c-1.1,2.1-2.8,3.2-5.3,3.2c-0.9,0-1.7-0.5-2.5-1.5c-0.8-1-1.6-2.1-2.4-3.3 c-0.8-1.2-1.6-2.4-2.4-3.3c-0.8-1-1.7-1.5-2.8-1.5c-2.8,0-4.3,1.3-4.3,4c0,1.8,0.4,4,1.2,6.8c0.8,2.8,1.2,5.5,1.2,8.1 c0,4.1-1,6.1-2.9,6.1c-1.1,0-1.8-1.4-2.1-4.3c-0.4-2.8-0.8-6-1.2-9.3c-0.4-3.4-1.1-6.5-1.9-9.3c-0.8-2.8-2.3-4.3-4.4-4.3 c-1.1,0-2.4,0.6-4.1,1.9c-1.7,1.2-3.4,1.9-5.2,1.9c-2.3,0-3.5-1.1-3.5-3.2c0-0.9,0.4-2.4,1.1-4.4c0.7-2,1.6-4.3,2.5-6.8 c1-2.5,1.8-5,2.5-7.6c0.7-2.6,1.1-4.9,1.1-7.1c0-2.1-0.7-4-2-5.6c-1.3-1.6-2.7-2.4-4.1-2.4c-1.4,0-2.7,0.3-3.9,0.9 c-1.2,0.6-2.2,1.3-3.2,2c-1,0.7-1.9,1.4-2.8,2c-0.9,0.6-1.9,0.9-2.9,0.9c-2.5,0-3.7-1.2-3.7-3.5c0-4.6,0.4-9.1,1.1-13.3 c0.7-4.3,1.5-9.3,2.3-15.1c0.8-5.8,1.6-12.7,2.3-20.8c0.7-8.1,1.1-18.3,1.1-30.5c0-8.2-0.8-15.5-2.3-22c-1.5-6.5-3.9-13.8-7.1-22 c-0.5-1.4-1-3.4-1.3-6c-0.4-2.6-0.6-5.2-0.8-7.9s-0.3-5.2-0.3-7.5c0-2.3,0-4,0-5.1c0-2.8,1.3-4.7,4-5.6c2.7-0.9,5.8-1.3,9.3-1.3 c7.3,0,12.3,1.4,15.1,4.1c2.8,2.8,4.1,6.4,4.1,11.1c0,8.5-0.1,15.8-0.4,21.7c-0.3,6-0.6,11-0.9,15.1c-0.4,4.1-0.7,7.6-0.9,10.5 c-0.3,2.9-0.4,5.6-0.4,7.9c0,1.4,0.2,3.2,0.7,5.5c0.4,2.2,1.2,4.4,2.3,6.5s2.4,4,4,5.5c1.6,1.5,3.6,2.3,6.1,2.3 c1.4,0,2.4-0.7,3.1-2c0.6-1.3,0.9-3.7,0.9-7.1c0-0.9-0.1-1.9-0.3-2.9c-0.2-1.1-0.3-2.3-0.3-3.7c0-2.8,0.3-5.3,0.9-7.3 c0.6-2,1.3-4.2,2-6.5c0.7-2.3,1.4-4.9,2-7.9c0.6-2.9,0.9-6.7,0.9-11.3c0-2.7-0.2-5.5-0.7-8.5c-0.4-3-0.9-5.9-1.5-8.7 c-0.5-2.8-1-5.3-1.5-7.6c-0.4-2.3-0.7-4-0.7-5.1c0-3,0.7-6,2.1-8.8c1.4-2.8,3.9-4.3,7.5-4.3c2.7,0,5.4,0.8,8.3,2.5 c2.8,1.7,5.4,2.5,7.7,2.5c2,0,3.7-0.4,5.2-1.3c1.5-0.9,3-1.3,4.4-1.3c2.5,0,4.2,0.5,5.1,1.6c0.9,1.1,1.3,2.9,1.3,5.6 c0,1.6-0.4,3.6-1.1,6.1c-0.7,2.5-1.1,4.5-1.1,6.1c0,3.6,0.4,7.7,1.3,12.5c0.9,4.8,1.3,9,1.3,12.5c0,2.7-0.1,5.1-0.4,7.2 s-0.4,4.2-0.4,6.1c0,4.6,0.4,8.1,1.3,10.4c0.9,2.3,2.7,3.5,5.3,3.5c2.3,0,4-1.2,5.1-3.5c1.1-2.3,1.8-5.7,2.1-10.1 c0.4-4.4,0.6-10,0.7-16.7c0.1-6.7,0.4-14.3,0.9-22.8c0.2-2.3,0.4-4.4,0.8-6.1c0.4-1.8,1.1-3.2,2.1-4.3c1.1-1.1,2.6-1.9,4.7-2.4 c2-0.5,4.7-0.8,7.9-0.8c3,0,5.6-0.2,7.6-0.7C208,167.1,209.8,166.9,211.4,166.9z M244.5,165c1.6,0.4,3.7,1.1,6.3,2.3 c2.6,1.2,5.2,1.7,7.9,1.7c3.7,0,6.7-0.6,8.8-1.7c2.1-1.2,4.4-1.7,6.7-1.7c2.5,0,3.9,0.8,4.3,2.4c0.4,1.6,1.1,4.4,2.1,8.5l2.4,8.8 c0.4,1.8,0.7,3.6,1.1,5.5c0.4,1.9,0.6,3.5,0.8,4.9c0,1.2-0.2,2.9-0.5,5.1c-0.4,2.1-0.5,3.9-0.5,5.3c0,6.9,0.5,13.4,1.6,19.5 c0,0.4,0.4,2,1.3,5.1c0.9,3,1.9,6.8,2.9,11.3s2,9.3,2.9,14.4c0.9,5.1,1.3,9.7,1.3,14c0,3.7,0.3,6.9,0.9,9.6c0.6,2.7,1.3,5.1,2,7.3 c0.7,2.2,1.4,4.4,2,6.7c0.6,2.2,0.9,4.7,0.9,7.3c0,2,0.2,4.8,0.7,8.5c0.4,3.7,1.5,8.4,3.1,13.9c1.2,5,2.3,9,3.2,12 c0.9,3,1.5,5.6,1.9,7.7c0.4,2.1,0.6,4,0.8,5.5c0.2,1.5,0.3,3.2,0.3,5.2c0,7.3-2.2,10.9-6.7,10.9c-2.8,0-4.3-1.5-4.3-4.5 c0-0.9,0.1-1.9,0.3-2.9c0.2-1.1,0.3-2,0.3-2.9c0-2.1-0.8-3.2-2.4-3.2c-1.1,0-1.8,0.6-2.3,1.9c-0.4,1.2-0.8,2.6-0.9,4 c-0.2,1.4-0.4,2.8-0.7,4c-0.3,1.2-0.9,1.9-2,1.9c-0.9,0-1.6-0.6-2.1-1.9c-0.5-1.2-1-2.6-1.3-4.1c-0.4-1.5-0.8-2.9-1.2-4.1 c-0.4-1.2-1-1.9-1.7-1.9c-1.1,0.4-1.6,2-1.6,4.8c0,0.9,0.1,2.2,0.4,4c0.3,1.8,0.4,3.4,0.4,4.8c0,1.8-0.3,3.1-0.9,3.9 c-0.6,0.8-1.4,1.2-2.3,1.2c-1.2,0-2.2-0.8-2.9-2.4c-0.7-1.6-1.2-3.6-1.5-5.9c-0.3-2.3-0.4-4.8-0.5-7.5c-0.1-2.7-0.1-5.2-0.1-7.5 c-0.2-3-0.8-6.3-1.7-9.9c-1-3.6-1.5-7.4-1.5-11.5c0-4.3-0.4-7.8-1.2-10.7c-0.8-2.8-2.2-4.3-4.1-4.3c-0.9,0-1.6,0.6-2.1,1.9 c-0.5,1.2-1,2.6-1.3,4.1c-0.4,1.5-0.8,2.9-1.5,4.1c-0.6,1.2-1.5,1.9-2.5,1.9c-0.9,0-1.8-0.5-2.8-1.5c-1-1-2-2.1-2.9-3.3 c-1-1.2-1.9-2.4-2.7-3.3c-0.8-1-1.5-1.5-2-1.5c-1.2,0-1.9,1.1-1.9,3.2c0,2,0.3,3.2,0.8,3.9c0.5,0.6,0.8,1.9,0.8,3.9 c0,1.1-0.9,2-2.7,2.9c-1.8,0.9-2.7,2.2-2.7,4c0,1.1,0.3,2.4,0.9,4c0.6,1.6,0.9,3.2,0.9,4.8c0,2.3-0.5,3.7-1.6,4.3 c-1.1,0.5-2.2,1.1-3.5,1.6c-1.2,0.5-2.4,1.5-3.5,2.9c-1.1,1.4-1.6,4.2-1.6,8.3c0,2.1-0.1,4.1-0.4,5.9c-0.3,1.8-1.4,2.7-3.3,2.7 c-1.8,0-2.9-0.7-3.5-2.1c-0.5-1.4-0.9-3-1.2-4.7c-0.3-1.7-0.6-3.2-0.9-4.7c-0.4-1.4-1.2-2.1-2.4-2.1c-0.5,0-1.1,0.4-1.7,1.1 c-0.6,0.7-1.2,1.5-1.7,2.3c-0.5,0.8-1.1,1.6-1.7,2.3c-0.6,0.7-1.2,1.1-1.7,1.1c-2,0-2.9-1.1-2.9-3.2c0-1.2,0.1-2.3,0.3-3.2 c0.2-0.9,0.4-2,0.7-3.3c0.3-1.3,0.5-3,0.7-4.9c0.2-2,0.3-4.5,0.3-7.7c0-3.4,0-6.8,0-10.4c0-3.6,0.3-6.6,0.8-9.1l2.4-11.7l5.9-24.3 c0.7-2.7,1.1-4.8,1.1-6.4c0-0.9-0.2-1.6-0.7-2c-0.4-0.4-0.7-1.3-0.7-2.5c0-1.4,0.2-3.1,0.7-5.1c0.4-2,1.1-4.2,2-6.7 c0.7-2.7,1.2-5.1,1.6-7.2c0.4-2.1,0.7-4.6,0.9-7.3c0.3-2.8,0.7-6.2,1.2-10.3c0.5-4.1,1.4-9.6,2.7-16.5c0.7-4.4,1.3-9.6,1.7-15.5 c0.4-5.9,1-11.5,1.6-16.8c0.6-5.3,1.5-9.8,2.7-13.5C240.4,166.8,242.2,165,244.5,165z M255.7,249.3c-0.9,0-1.6,0.7-2.1,2 c-0.5,1.3-1,2.9-1.5,4.8c-0.4,1.9-0.8,3.9-0.9,6c-0.2,2.1-0.3,4-0.3,5.6c0,2,0.3,3.4,0.8,4.4c0.5,1,0.9,1.9,1.1,2.8 c0,0.5-0.3,1.3-0.9,2.3c-0.6,1-0.9,2.4-0.9,4.4c0,2.1,2.8,3.2,8.3,3.2c3,0,5.1-0.4,6.3-1.1c1.2-0.7,1.7-1.5,1.7-2.4 c0-0.9-0.2-2-0.5-3.5c-0.4-1.4-0.5-3.1-0.5-5.1c0-4.4,0-8-0.1-10.7c-0.1-2.7-0.3-4.7-0.5-6c-0.3-1.3-0.5-2.2-0.8-2.5 c-0.3-0.4-0.5-0.5-0.7-0.5c-0.7,0-1.2,0.5-1.3,1.5c-0.2,1-0.4,2-0.5,3.2c-0.2,1.2-0.4,2.2-0.8,3.2c-0.4,1-1,1.5-1.9,1.5 c-0.9,0-1.5-0.7-1.7-2c-0.3-1.3-0.4-2.8-0.4-4.5c0-1.7-0.1-3.2-0.3-4.5C256.8,250,256.4,249.3,255.7,249.3z M376.2,166.3 c1.8,0,3.4,0.7,4.8,2c1.4,1.3,2.5,3,3.3,5.1c0.8,2,1.4,4.2,1.9,6.4c0.4,2.2,0.7,4.1,0.7,5.7c0,1.1-0.2,2.5-0.7,4.3 c-0.4,1.8-0.9,3.6-1.3,5.5c-0.4,1.9-0.9,3.8-1.3,5.7c-0.4,2-0.7,3.6-0.7,4.8c0,3,0.2,5,0.5,6c0.4,1,0.5,1.9,0.5,2.8 c0,3-1.1,4.5-3.2,4.5c-1.8,0-2.9-0.9-3.5-2.8c-0.5-1.9-0.9-3.9-1.1-6.1c-0.2-2.2-0.4-4.3-0.5-6.1c-0.2-1.9-0.7-2.8-1.6-2.8 c-0.7,0-1.3,0.4-1.7,1.1c-0.4,0.7-0.8,1.5-1.2,2.3c-0.4,0.8-0.8,1.6-1.2,2.3c-0.4,0.7-0.9,1.1-1.5,1.1c-0.9,0-1.6-0.3-2.3-0.9 c-0.6-0.6-1.3-1.3-2-2c-0.7-0.7-1.5-1.4-2.3-2c-0.8-0.6-1.7-0.9-2.8-0.9c-3,0-5,1.1-6,3.3c-1,2.2-1.5,6-1.5,11.3 c0,1.4,0.2,3,0.5,4.7c0.4,1.7,0.5,3,0.5,3.9c0,4.1-0.3,7.6-0.8,10.5c-0.5,2.9-0.8,5.6-0.8,7.9c0,3.4,0.3,6.2,0.8,8.5 c0.5,2.3,1.2,4.7,1.9,7.1c0.7,2.4,1.3,5.1,1.9,8c0.5,2.9,0.8,6.7,0.8,11.3c0,3.4-0.3,6.4-0.8,9.1c-0.5,2.7-1.1,5.2-1.6,7.5 c-0.5,2.3-1.1,4.6-1.6,6.9c-0.5,2.3-0.8,4.8-0.8,7.5c0,3.9,0.4,7,1.2,9.2c0.8,2.2,1.2,4.8,1.2,7.6c0,0.9-0.1,1.9-0.4,3.1 c-0.3,1.2-0.4,2.2-0.4,3.1c0,1.4,0.5,3.3,1.6,5.7c1.1,2.4,1.6,4.4,1.6,6c-0.2,2-1,3.3-2.5,4.1c-1.5,0.8-3.1,1.7-4.8,2.8 c-1.7,1.1-3.2,2.5-4.7,4.4c-1.4,1.9-2.1,4.8-2.1,8.7c0,3.7,0.5,7.2,1.6,10.3c1.1,3.1,1.6,6.9,1.6,11.3c0,1.4-0.7,2.7-2,3.7 c-1.3,1.1-3.2,1.6-5.7,1.6c-4.3,0-6.4-1.7-6.4-5.1c0-2.5,0.4-4.8,1.3-6.9c0.9-2.1,1.3-4.4,1.3-6.7c0-2.3,0-4.8-0.1-7.3 c-0.1-2.6-0.3-5-0.5-7.2c-0.3-2.2-0.7-4-1.3-5.5c-0.6-1.4-1.6-2.1-2.8-2.1c-0.5,0-1,0.2-1.3,0.7c-0.4,0.4-0.7,1-0.9,1.6 c-0.3,0.6-0.6,1.2-0.9,1.6c-0.4,0.4-0.9,0.7-1.6,0.7c-1.1,0-2-1-2.7-2.9c-0.7-2-1.3-4.3-1.9-6.9c-0.5-2.7-0.9-5.4-1.2-8.1 c-0.3-2.8-0.4-4.8-0.4-6.3c0-4.1,0.4-8.4,1.1-13.1c0.7-4.6,1.5-9.1,2.4-13.3c0.9-4.3,1.7-8.1,2.4-11.5c0.7-3.4,1.1-5.9,1.1-7.5 c0-3-0.1-5.5-0.3-7.3c-0.2-1.9-0.3-3.4-0.4-4.7c-0.1-1.2-0.2-2.3-0.4-3.1c-0.2-0.8-0.3-1.7-0.3-2.8c0-1.4,0.1-3.6,0.3-6.5 c0.2-2.9,0.4-6.2,0.8-9.7c0.4-3.6,0.7-7.2,1.1-10.8c0.4-3.6,0.7-7,1.1-10c0.5-4.6,1.2-9.4,2.1-14.4c0.9-5,1.3-8.7,1.3-11.2 c0-2.7-0.9-4.2-2.8-4.7c-1.9-0.4-3.4-0.7-4.7-0.7c-2,0-3.3,0.9-4.1,2.8s-1.5,3.9-2.1,6c-0.6,2.1-1.3,4.1-2.1,6s-2.1,2.8-3.9,2.8 c-1.6,0-2.7-0.9-3.3-2.8c-0.6-1.9-1.2-3.9-1.9-6c-0.6-2.1-1.5-4.1-2.5-6s-2.7-2.8-4.8-2.8c-1.4,0-2.8-0.5-4.3-1.5 c-1.4-1-2.1-2.3-2.1-3.9c0-1.1,0.6-2.6,1.9-4.7c1.2-2,1.9-3.9,1.9-5.5c0-0.7-0.1-1.7-0.4-2.9c-0.3-1.2-0.5-2.5-0.8-3.7 c-0.3-1.2-0.5-2.4-0.8-3.5c-0.3-1.1-0.4-1.9-0.4-2.4c0-2.1,1.2-3.2,3.5-3.2s4.5,0.7,6.5,2c2,1.3,4.3,2,6.8,2c2.5,0,4.8-0.3,6.8-0.9 c2-0.6,4-1.2,5.7-1.9c1.8-0.6,3.5-1.2,5.1-1.9c1.6-0.6,3.2-0.9,4.8-0.9c3,0,5.5,0.2,7.5,0.5c2,0.4,3.9,0.8,5.7,1.2 c1.9,0.4,3.9,0.8,6,1.2c2.1,0.4,4.8,0.5,8,0.5c3.9,0,7.2-0.6,9.7-1.9C372,167,374.3,166.3,376.2,166.3z M428.2,161.8 c1.2,0,3.1,0.4,5.5,1.1c2.4,0.7,5,1.6,7.7,2.5c2.8,1,5.6,2,8.4,3.2c2.8,1.2,5.4,2.2,7.7,3.1c2.5,0.9,4.9,2.6,7.3,5.2 c2.4,2.6,4.5,5.6,6.4,9.1c1.9,3.5,3.4,7.1,4.5,10.9c1.2,3.8,1.7,7.4,1.7,10.8c0,2-0.3,4.7-0.8,8.3c-0.5,3.6-0.8,6.4-0.8,8.5 c0,3,0.2,5.1,0.7,6.3c0.4,1.2,0.7,2.4,0.7,3.9c0,1.2-0.3,2.4-0.8,3.5c-0.5,1.1-1.5,1.6-2.9,1.6c-0.5,0-1.1-0.4-1.6-1.1 c-0.5-0.7-1.1-1.5-1.6-2.4c-0.5-0.9-1-1.7-1.5-2.4c-0.4-0.7-0.8-1.1-0.9-1.1c-0.5,0-1.2,0.3-1.9,0.9c-0.7,0.6-1.2,0.9-1.6,0.9 c-0.7,0-1.6-0.7-2.5-2c-1-1.3-1.7-2-2.3-2c-1.6,0-2.5,0.8-2.8,2.3c-0.3,1.5-0.4,3.2-0.4,4.9c0,1.8-0.1,3.4-0.4,4.9 c-0.3,1.5-1.2,2.3-2.8,2.3c-1.1,0-1.8-0.3-2.1-0.9c-0.4-0.6-0.6-1.4-0.8-2.3c-0.2-0.9-0.3-1.8-0.3-2.8c0-1-0.3-1.9-0.8-2.8 c-1.1-2-2.2-3.6-3.3-5.1c-1.2-1.4-1.7-4.4-1.7-9.1c0-0.7,0-1.5,0.1-2.3c0.1-0.8,0.1-1.9,0.1-3.3c0-6.2-0.2-11.3-0.7-15.2 c-0.4-3.9-1.5-5.9-3.1-5.9c-1.1,0-2,1.1-2.8,3.3c-0.8,2.2-1.2,5-1.2,8.4c0,1.8,0.3,4,0.9,6.5c0.6,2.6,0.9,4.8,0.9,6.8 c0,1.4-0.2,2.7-0.7,3.7c-0.4,1.1-1.4,1.6-2.8,1.6c-1.1,0-1.9-0.5-2.4-1.6c-0.5-1.1-1-2.3-1.3-3.7c-0.4-1.4-0.6-2.8-0.7-4.1 c-0.1-1.3-0.1-2.3-0.1-2.8c0-1.4,0.1-2.9,0.3-4.5c0.2-1.6,0.3-3.1,0.3-4.5c0-3.6-1-5.3-2.9-5.3c-1.1,0-2,0.4-2.8,1.3 c-0.8,0.9-1.2,1.9-1.2,2.9c0,2,0.7,4,2.1,6.1c1.4,2.1,2.1,3.7,2.1,4.8c0,1.4-0.4,2.6-1.1,3.5c-0.7,0.9-1.5,1.3-2.4,1.3 c-0.9,0-1.6-0.2-2.3-0.5c-0.6-0.4-1.4-0.5-2.3-0.5c-0.9,0-1.4,0.4-1.6,1.3c-0.2,0.9-0.3,1.7-0.3,2.4c0,2.1,0.1,3.7,0.4,4.8 c0.3,1.1,0.6,2,0.9,2.7c0.4,0.7,0.7,1.4,0.9,2.1c0.3,0.7,0.4,1.6,0.4,2.7c0,1.4-0.2,3-0.7,4.8c-0.4,1.8-0.9,3.6-1.3,5.3 c-0.4,1.8-0.9,3.5-1.3,5.2c-0.4,1.7-0.7,3.2-0.7,4.4c0,1.4,0.4,2.9,1.1,4.4c0.7,1.5,2,3.6,4,6.3c2,2.8,2.9,6,2.9,9.6 c0,4.6,0.2,8,0.5,10.1c0.4,2.1,0.5,3.5,0.5,4c0,1.1-0.4,2.3-1.2,3.7c-0.8,1.4-2.3,2.6-4.4,3.5c-1.6,0.5-2.6,1.1-3.1,1.7 c-0.4,0.6-0.7,1.3-0.7,2c0,0.9,0.6,2,1.9,3.3c1.2,1.3,1.9,2.7,1.9,4.1c0,1.1-0.5,2.1-1.6,3.2c-0.9,1.4-1.4,2.9-1.5,4.4 c-0.1,1.5-0.1,3.1-0.1,4.7c0,2.5,0.6,4.2,1.7,5.2c1.2,1,2.4,1.5,3.9,1.5c0.5,0,1.5-0.2,2.9-0.5c1.4-0.4,2.6-0.5,3.5-0.5 c0.9,0,1.9,0.4,3.1,1.1c1.2,0.7,2.2,1.1,3.1,1.1c2.5-0.2,4.5-1.6,6-4.1c1.5-2.6,2.7-5.6,3.6-9.2c0.9-3.6,1.5-7.2,1.9-10.8 c0.4-3.6,0.5-6.7,0.5-9.2c0-2-0.1-3.4-0.3-4.4c-0.2-1-0.3-2.1-0.3-3.3c0-2.7,0.8-4,2.4-4c1.2,0,2.4,0.4,3.6,1.3 c1.2,0.9,2.2,1.3,3.1,1.3c1.1,0,2-0.4,2.8-1.1c0.8-0.7,1.6-1.1,2.5-1.1c1.1,0,2,0.3,2.9,0.8c0.9,0.5,2,0.8,3.2,0.8 c0.9,0,1.8-0.4,2.8-1.1c1-0.7,1.7-1.1,2.3-1.1c2.3,0.4,4,1.4,5.1,3.1c1.1,1.7,1.6,3.8,1.6,6.3c0,1.8-0.3,3.5-0.9,5.2 c-0.6,1.7-1.2,3.4-1.9,5.1c-0.6,1.7-1.2,3.5-1.9,5.3c-0.6,1.9-0.9,3.9-0.9,6c0,1.4,0.1,2.9,0.3,4.5c0.2,1.6,0.3,3.5,0.3,5.6 c0,4.1-1.3,7.8-3.9,11.2c-2.6,3.4-6.8,7.8-12.7,13.3c-1.2,1.2-3.2,2.5-5.9,3.7c-2.7,1.2-4.7,2.8-6.1,4.8c-0.4,0.4-0.7,1-0.9,2 c-0.3,1-0.5,2-0.8,3.1c-0.3,1.1-0.6,2-1.1,2.8c-0.4,0.8-0.9,1.2-1.5,1.2c-0.5,0-1.2-0.5-1.9-1.6c-0.7-1.1-1.5-2.3-2.3-3.6 c-0.8-1.3-1.6-2.5-2.5-3.6c-0.9-1.1-1.7-1.6-2.4-1.6c-1.4,0-2.3,0.7-2.7,2.1c-0.4,1.4-0.7,2.9-0.9,4.5c-0.3,1.6-0.6,3.1-1.1,4.5 c-0.4,1.4-1.6,2.1-3.3,2.1c-0.9,0-1.5-0.9-1.7-2.7c-0.3-1.8-0.5-3.7-0.8-5.7c-0.3-2-0.7-4-1.2-5.7c-0.5-1.8-1.6-2.7-3.2-2.7 c-1.1,0-1.7,0.4-1.9,1.3c-0.2,0.9-0.3,1.9-0.4,3.1c-0.1,1.2-0.2,2.2-0.4,3.1c-0.2,0.9-0.7,1.3-1.6,1.3c-0.7,0-1.3-0.6-1.7-1.7 c-0.4-1.2-0.9-2.5-1.3-4c-0.4-1.5-0.9-2.9-1.5-4.3c-0.5-1.3-1.2-2.2-2.1-2.5c-0.7-0.4-1.4-0.6-2.1-0.8c-0.7-0.2-1.3-0.5-1.9-1.1 c-0.9-0.7-1.6-1.9-2.3-3.5c-0.6-1.6-1.2-3.2-1.7-4.8c-0.5-1.6-1-3-1.3-4.3c-0.4-1.2-0.7-1.9-1.1-1.9c-0.4,0-0.6,0.5-0.7,1.5 c-0.1,1-0.6,1.5-1.5,1.5c-1.6,0-2.4-2.6-2.4-7.7c0-2,0.2-3.4,0.7-4.3c0.4-0.9,0.7-2,0.7-3.5c0-1.6-0.4-2.5-1.2-2.8 c-0.8-0.3-1.2-1.1-1.2-2.5c0-1.4,0.3-2.9,0.8-4.4c0.5-1.5,0.8-2.5,0.8-3.1c0-2.1-0.3-3.2-0.8-3.2c-0.5,0-0.9,0.3-1.2,0.8 c-0.3,0.5-0.7,0.8-1.2,0.8c-0.9,0-1.3-0.6-1.3-1.9c0-1.6,0.2-3.1,0.5-4.4c0.4-1.3,0.7-2.8,1.1-4.5c0.4-1.7,0.7-3.7,1.1-6 c0.4-2.3,0.5-5.2,0.5-8.8c0-9.4-0.3-20.1-0.8-32c-0.5-11.9-0.8-24.3-0.8-37.1c0-18.8,5.1-30.6,15.2-35.2c4.3-1.8,7.7-3.4,10.4-4.9 c2.7-1.5,4.8-2.8,6.5-3.9c1.7-1.1,3-1.9,4-2.5C426.4,162.1,427.4,161.8,428.2,161.8z M587.2,288.2c-0.4,0.9-1.5,2.8-3.3,5.6 c-1.9,2.8-2.8,6.3-2.8,10.4c0,10,0.9,17.9,2.8,23.7c1.9,5.9,2.8,9.6,2.8,11.2c0,3.4-1.1,6.6-3.2,9.6c-2.1,3-3.8,4.5-5.1,4.5 c-0.5,0-1.4-0.1-2.5-0.4c-1.2-0.3-1.9-0.4-2.3-0.4c-0.4,0-1.1,0.1-2.1,0.4c-1.1,0.3-1.6,1.2-1.6,2.8c0,0.5,0.1,1.3,0.3,2.4 c0.2,1.1,0.4,2.1,0.7,3.1c0.3,1,0.5,1.8,0.7,2.5c0.2,0.7,0.3,1,0.3,0.8c0,2.1-1.1,3.2-3.2,3.2c-0.9,0-1.3-1.4-1.3-4.3v-4.5 c0-5-1.2-7.5-3.7-7.5c-1.4,0-2.9,0.7-4.5,2.1c-1.6,1.4-3.1,2.1-4.5,2.1c-1.8,0-2.7-1.7-2.7-5.1V345c0-0.7-0.1-2.1-0.4-4.1 c-0.3-2-0.5-4.2-0.8-6.5c-0.3-2.3-0.5-4.5-0.7-6.5c-0.2-2-0.3-3.3-0.3-3.9c0-0.7,0.1-1.8,0.3-3.3c0.2-1.5,0.3-2.4,0.3-2.8 c0-0.5,0-1.1-0.1-1.6c-0.1-0.5-0.1-1.2-0.1-2.1c0-1.2,0.3-2.8,0.8-4.5c0.5-1.8,1.1-3.6,1.7-5.5c0.6-1.9,1.2-3.7,1.7-5.5 c0.5-1.8,0.8-3.5,0.8-5.1c0-0.7,0.1-1.8,0.3-3.3c0.2-1.5,0.4-3.1,0.5-4.8c0.2-1.7,0.4-3.3,0.5-4.9c0.2-1.6,0.3-2.8,0.3-3.7 c0-3.7-1.1-5.6-3.2-5.6c-0.4,0-0.9,0.4-1.7,1.1c-0.8,0.7-1.6,1.6-2.4,2.5c-0.8,1-1.6,1.8-2.4,2.5c-0.8,0.7-1.5,1.1-2,1.1 c-0.7,0-1.7-0.2-3.1-0.7c-1.3-0.4-2.2-0.7-2.5-0.7c-0.5,0-1.1,0.3-1.7,0.9c-0.6,0.6-0.9,1.5-0.9,2.5c0,0.2,0.2,0.8,0.5,1.9 c0.4,1.1,0.5,2.8,0.5,5.1v3.5c0,0.9-0.2,1.8-0.5,2.7c-0.4,0.9-1,1.3-1.9,1.3c-0.4,0-0.8-0.4-1.3-1.1c-0.5-0.7-1.1-1.5-1.6-2.3 c-0.5-0.8-1.1-1.6-1.7-2.3c-0.6-0.7-1.3-1.1-2-1.1c-1.1,0-1.6,0.7-1.6,2.1c0,1.2,0.4,3.4,1.3,6.5c0.9,3.1,1.3,5.6,1.3,7.3 c0,2.1-0.3,4.8-0.8,8.1c-0.5,3.3-0.8,5.6-0.8,6.8c0,1.4,0.3,2.9,0.8,4.5s0.8,3.6,0.8,5.9c0,0.5,0,1-0.1,1.3 c-0.1,0.4-0.1,0.8-0.1,1.3c0,3,0.5,5.8,1.5,8.4c1,2.6,1.5,4,1.5,4.1c0,1.4-0.6,3-1.7,4.8c-1.2,1.8-2.2,2.7-3.1,2.7 c-0.4,0-0.6,0-0.8-0.1c-0.2-0.1-0.5-0.1-1.1-0.1c-2,0-4.1,0.4-6.4,1.2c-2.3,0.8-3.8,2.5-4.5,5.2c0,1.1,0.5,2.4,1.6,3.9 c1.1,1.5,1.6,2.7,1.6,3.6c0,2-1.1,2.9-3.2,2.9c-0.9,0-1.7-0.4-2.5-1.2c-0.8-0.8-1.2-1.7-1.2-2.8c0.2-1.6,0.4-3,0.5-4.3 c0.2-1.2,0.3-2.3,0.3-3.2c0-3.9-1.2-5.9-3.7-5.9c-0.7,0-1.5,0.3-2.4,0.9c-0.9,0.6-1.8,1.3-2.7,2c-0.9,0.7-1.7,1.4-2.4,2 c-0.7,0.6-1.2,0.9-1.6,0.9c-1.4,0-2.1-0.8-2.1-2.4c0.4-1.8,0.7-3.3,0.9-4.5c0.3-1.2,0.5-2.4,0.8-3.6c0.3-1.2,0.4-2.2,0.4-3.1 c0-1.4-0.4-3.1-1.2-5.1c-0.8-2-1.2-3.4-1.2-4.3c0-1.1,0.7-2.8,2-5.2c1.3-2.4,2-4.1,2-5.2c0-2.1-0.4-3.6-1.2-4.4s-1.7-1.5-2.7-2 c-1-0.5-1.9-1.3-2.7-2.4s-1.2-3.1-1.2-6.1c0-0.9,0.2-2,0.7-3.3c0.4-1.3,1-2.7,1.6-4.1c0.6-1.4,1.2-2.8,1.6-4.3 c0.4-1.4,0.7-2.7,0.7-3.7v-10.1c0-3.6,0.3-7.2,0.8-10.9c0.5-3.7,1.2-7.2,1.9-10.3c0.7-3.1,1.3-5.8,1.9-8c0.5-2.2,0.8-3.6,0.8-4.1 c0-1.4-0.2-3.1-0.5-4.9c-0.4-1.9-0.8-3.6-1.3-5.2c-0.5-1.6-1.1-2.9-1.7-4c-0.6-1.1-1.1-1.6-1.5-1.6c-0.5,0-1.1,0.4-1.7,1.2 c-0.6,0.8-1.1,1.2-1.5,1.2c-1.2-0.2-1.9-1.5-1.9-4c0-1.4,0.3-3.6,0.8-6.5c0.5-2.9,1.1-6.2,1.7-9.7c0.6-3.6,1.2-7.2,1.7-10.8 c0.5-3.6,0.8-6.9,0.8-9.7c0-3.6-0.1-6.5-0.3-8.9c-0.2-2.4-0.3-4.8-0.3-7.1c0-3,1.1-6,3.2-8.8c2.1-2.8,5.2-4.3,9.3-4.3 c0.7,0,1.8,0.1,3.2,0.4c1.4,0.3,2.7,0.4,3.7,0.4c0.7,0,1.4-0.1,2-0.3c0.6-0.2,1.4-0.3,2.3-0.3c1.6,0,2.8,0.5,3.7,1.6 c0.9,1.1,1.6,2.4,2.1,4.1c0.5,1.7,0.8,3.5,0.9,5.3c0.1,1.9,0.1,3.6,0.1,5.2c0,4.6,0.3,8.4,0.9,11.5c0.6,3,1.3,5.5,2.1,7.5 c0.8,2,1.5,3.7,2.1,5.2c0.6,1.5,0.9,3.2,0.9,4.9c0,1.2-0.4,2-1.1,2.1c-0.7,0.2-1.5,0.4-2.3,0.8c-0.8,0.4-1.5,1.2-2.1,2.5 c-0.6,1.3-0.9,3.7-0.9,7.1c0,4.3,0.7,7.8,2,10.7c1.3,2.8,3.4,4.3,6.3,4.3c0.7,0,1.5-0.1,2.3-0.4c0.8-0.3,1.6-0.4,2.5-0.4 c1.8,0,3.8,0.4,6.1,1.1c2.3,0.7,3.4,1.1,3.2,1.1c1.2,0,2-0.9,2.4-2.7c0-0.4-0.3-1.7-0.9-4.1c-0.6-2.4-0.9-4.3-0.9-5.7v-13.6 c0-7.5,0-12.5-0.1-15.2c-0.1-2.7-0.1-4.5-0.1-5.6c0-2,0.4-4.3,1.1-7.1c0.7-2.8,1.1-4.8,1.1-6c0-2.3-0.7-4-2-5.1s-2-2-2-2.9 c0-2,1.2-3.6,3.7-5.1c2.5-1.4,5.2-2.1,8-2.1c3.7,0,6.5,0.2,8.4,0.5c1.9,0.4,3.2,0.5,4.1,0.5c0.5,0,1.6-0.3,3.3-0.8 c1.7-0.5,2.8-0.8,3.3-0.8c3.4,0.7,5.5,3.3,6.3,7.7c0.8,4.4,1.2,9.9,1.2,16.3c0,2.5-0.1,5.5-0.4,8.9c-0.3,3.5-0.8,6-1.5,7.6 l-2.4,5.3c-0.7,2-1.1,4.4-1.1,7.5c0,2.3,0.2,4.8,0.7,7.6c0.4,2.8,0.9,5.4,1.5,8c0.5,2.6,1,4.8,1.5,6.7c0.4,1.9,0.7,3.2,0.7,3.9v3.7 c0,3.7,0.2,6.7,0.5,8.9c0.4,2.2,0.5,3.6,0.5,4.1c0,1.8-0.3,3.9-0.9,6.3c-0.6,2.4-0.9,4.4-0.9,6c0,1.6,0.5,3.6,1.5,6.1 c1,2.5,1.5,4.3,1.5,5.3L587.2,288.2z M724.9,166.3c1.8,0,3.4,0.7,4.8,2c1.4,1.3,2.5,3,3.3,5.1c0.8,2,1.4,4.2,1.9,6.4 c0.4,2.2,0.7,4.1,0.7,5.7c0,1.1-0.2,2.5-0.7,4.3c-0.4,1.8-0.9,3.6-1.3,5.5c-0.4,1.9-0.9,3.8-1.3,5.7c-0.4,2-0.7,3.6-0.7,4.8 c0,3,0.2,5,0.5,6c0.4,1,0.5,1.9,0.5,2.8c0,3-1.1,4.5-3.2,4.5c-1.8,0-2.9-0.9-3.5-2.8s-0.9-3.9-1.1-6.1c-0.2-2.2-0.4-4.3-0.5-6.1 c-0.2-1.9-0.7-2.8-1.6-2.8c-0.7,0-1.3,0.4-1.7,1.1c-0.4,0.7-0.8,1.5-1.2,2.3c-0.4,0.8-0.8,1.6-1.2,2.3c-0.4,0.7-0.9,1.1-1.5,1.1 c-0.9,0-1.6-0.3-2.3-0.9c-0.6-0.6-1.3-1.3-2-2c-0.7-0.7-1.5-1.4-2.3-2c-0.8-0.6-1.7-0.9-2.8-0.9c-3,0-5,1.1-6,3.3 c-1,2.2-1.5,6-1.5,11.3c0,1.4,0.2,3,0.5,4.7c0.4,1.7,0.5,3,0.5,3.9c0,4.1-0.3,7.6-0.8,10.5c-0.5,2.9-0.8,5.6-0.8,7.9 c0,3.4,0.3,6.2,0.8,8.5c0.5,2.3,1.2,4.7,1.9,7.1c0.7,2.4,1.3,5.1,1.9,8c0.5,2.9,0.8,6.7,0.8,11.3c0,3.4-0.3,6.4-0.8,9.1 c-0.5,2.7-1.1,5.2-1.6,7.5c-0.5,2.3-1.1,4.6-1.6,6.9c-0.5,2.3-0.8,4.8-0.8,7.5c0,3.9,0.4,7,1.2,9.2c0.8,2.2,1.2,4.8,1.2,7.6 c0,0.9-0.1,1.9-0.4,3.1c-0.3,1.2-0.4,2.2-0.4,3.1c0,1.4,0.5,3.3,1.6,5.7c1.1,2.4,1.6,4.4,1.6,6c-0.2,2-1,3.3-2.5,4.1 c-1.5,0.8-3.1,1.7-4.8,2.8c-1.7,1.1-3.2,2.5-4.7,4.4c-1.4,1.9-2.1,4.8-2.1,8.7c0,3.7,0.5,7.2,1.6,10.3c1.1,3.1,1.6,6.9,1.6,11.3 c0,1.4-0.7,2.7-2,3.7s-3.2,1.6-5.7,1.6c-4.3,0-6.4-1.7-6.4-5.1c0-2.5,0.4-4.8,1.3-6.9c0.9-2.1,1.3-4.4,1.3-6.7c0-2.3,0-4.8-0.1-7.3 c-0.1-2.6-0.3-5-0.5-7.2c-0.3-2.2-0.7-4-1.3-5.5c-0.6-1.4-1.6-2.1-2.8-2.1c-0.5,0-1,0.2-1.3,0.7c-0.4,0.4-0.7,1-0.9,1.6 c-0.3,0.6-0.6,1.2-0.9,1.6c-0.4,0.4-0.9,0.7-1.6,0.7c-1.1,0-2-1-2.7-2.9c-0.7-2-1.3-4.3-1.9-6.9s-0.9-5.4-1.2-8.1 c-0.3-2.8-0.4-4.8-0.4-6.3c0-4.1,0.4-8.4,1.1-13.1c0.7-4.6,1.5-9.1,2.4-13.3c0.9-4.3,1.7-8.1,2.4-11.5c0.7-3.4,1.1-5.9,1.1-7.5 c0-3-0.1-5.5-0.3-7.3c-0.2-1.9-0.3-3.4-0.4-4.7c-0.1-1.2-0.2-2.3-0.4-3.1c-0.2-0.8-0.3-1.7-0.3-2.8c0-1.4,0.1-3.6,0.3-6.5 c0.2-2.9,0.4-6.2,0.8-9.7c0.4-3.6,0.7-7.2,1.1-10.8c0.4-3.6,0.7-7,1.1-10c0.5-4.6,1.2-9.4,2.1-14.4c0.9-5,1.3-8.7,1.3-11.2 c0-2.7-0.9-4.2-2.8-4.7c-1.9-0.4-3.4-0.7-4.7-0.7c-2,0-3.3,0.9-4.1,2.8s-1.5,3.9-2.1,6c-0.6,2.1-1.3,4.1-2.1,6 c-0.8,1.9-2.1,2.8-3.9,2.8c-1.6,0-2.7-0.9-3.3-2.8c-0.6-1.9-1.2-3.9-1.9-6c-0.6-2.1-1.5-4.1-2.5-6c-1.1-1.9-2.7-2.8-4.8-2.8 c-1.4,0-2.8-0.5-4.3-1.5c-1.4-1-2.1-2.3-2.1-3.9c0-1.1,0.6-2.6,1.9-4.7c1.2-2,1.9-3.9,1.9-5.5c0-0.7-0.1-1.7-0.4-2.9 c-0.3-1.2-0.5-2.5-0.8-3.7c-0.3-1.2-0.5-2.4-0.8-3.5c-0.3-1.1-0.4-1.9-0.4-2.4c0-2.1,1.2-3.2,3.5-3.2s4.5,0.7,6.5,2 c2,1.3,4.3,2,6.8,2c2.5,0,4.8-0.3,6.8-0.9c2-0.6,4-1.2,5.7-1.9c1.8-0.6,3.5-1.2,5.1-1.9c1.6-0.6,3.2-0.9,4.8-0.9 c3,0,5.5,0.2,7.5,0.5c2,0.4,3.9,0.8,5.7,1.2c1.9,0.4,3.9,0.8,6,1.2c2.1,0.4,4.8,0.5,8,0.5c3.9,0,7.2-0.6,9.7-1.9 C720.6,167,722.9,166.3,724.9,166.3z M831,288.2c-0.4,0.9-1.5,2.8-3.3,5.6c-1.9,2.8-2.8,6.3-2.8,10.4c0,10,0.9,17.9,2.8,23.7 c1.9,5.9,2.8,9.6,2.8,11.2c0,3.4-1.1,6.6-3.2,9.6s-3.8,4.5-5.1,4.5c-0.5,0-1.4-0.1-2.5-0.4c-1.2-0.3-1.9-0.4-2.3-0.4 c-0.4,0-1.1,0.1-2.1,0.4c-1.1,0.3-1.6,1.2-1.6,2.8c0,0.5,0.1,1.3,0.3,2.4c0.2,1.1,0.4,2.1,0.7,3.1c0.3,1,0.5,1.8,0.7,2.5 c0.2,0.7,0.3,1,0.3,0.8c0,2.1-1.1,3.2-3.2,3.2c-0.9,0-1.3-1.4-1.3-4.3v-4.5c0-5-1.2-7.5-3.7-7.5c-1.4,0-2.9,0.7-4.5,2.1 c-1.6,1.4-3.1,2.1-4.5,2.1c-1.8,0-2.7-1.7-2.7-5.1V345c0-0.7-0.1-2.1-0.4-4.1c-0.3-2-0.5-4.2-0.8-6.5c-0.3-2.3-0.5-4.5-0.7-6.5 c-0.2-2-0.3-3.3-0.3-3.9c0-0.7,0.1-1.8,0.3-3.3c0.2-1.5,0.3-2.4,0.3-2.8c0-0.5,0-1.1-0.1-1.6c-0.1-0.5-0.1-1.2-0.1-2.1 c0-1.2,0.3-2.8,0.8-4.5c0.5-1.8,1.1-3.6,1.7-5.5c0.6-1.9,1.2-3.7,1.7-5.5c0.5-1.8,0.8-3.5,0.8-5.1c0-0.7,0.1-1.8,0.3-3.3 c0.2-1.5,0.4-3.1,0.5-4.8c0.2-1.7,0.4-3.3,0.5-4.9c0.2-1.6,0.3-2.8,0.3-3.7c0-3.7-1.1-5.6-3.2-5.6c-0.4,0-0.9,0.4-1.7,1.1 c-0.8,0.7-1.6,1.6-2.4,2.5c-0.8,1-1.6,1.8-2.4,2.5c-0.8,0.7-1.5,1.1-2,1.1c-0.7,0-1.7-0.2-3.1-0.7c-1.3-0.4-2.2-0.7-2.5-0.7 c-0.5,0-1.1,0.3-1.7,0.9c-0.6,0.6-0.9,1.5-0.9,2.5c0,0.2,0.2,0.8,0.5,1.9c0.4,1.1,0.5,2.8,0.5,5.1v3.5c0,0.9-0.2,1.8-0.5,2.7 c-0.4,0.9-1,1.3-1.9,1.3c-0.4,0-0.8-0.4-1.3-1.1c-0.5-0.7-1.1-1.5-1.6-2.3c-0.5-0.8-1.1-1.6-1.7-2.3c-0.6-0.7-1.3-1.1-2-1.1 c-1.1,0-1.6,0.7-1.6,2.1c0,1.2,0.4,3.4,1.3,6.5c0.9,3.1,1.3,5.6,1.3,7.3c0,2.1-0.3,4.8-0.8,8.1c-0.5,3.3-0.8,5.6-0.8,6.8 c0,1.4,0.3,2.9,0.8,4.5c0.5,1.6,0.8,3.6,0.8,5.9c0,0.5,0,1-0.1,1.3c-0.1,0.4-0.1,0.8-0.1,1.3c0,3,0.5,5.8,1.5,8.4 c1,2.6,1.5,4,1.5,4.1c0,1.4-0.6,3-1.7,4.8c-1.2,1.8-2.2,2.7-3.1,2.7c-0.4,0-0.6,0-0.8-0.1c-0.2-0.1-0.5-0.1-1.1-0.1 c-2,0-4.1,0.4-6.4,1.2c-2.3,0.8-3.8,2.5-4.5,5.2c0,1.1,0.5,2.4,1.6,3.9c1.1,1.5,1.6,2.7,1.6,3.6c0,2-1.1,2.9-3.2,2.9 c-0.9,0-1.7-0.4-2.5-1.2c-0.8-0.8-1.2-1.7-1.2-2.8c0.2-1.6,0.4-3,0.5-4.3c0.2-1.2,0.3-2.3,0.3-3.2c0-3.9-1.2-5.9-3.7-5.9 c-0.7,0-1.5,0.3-2.4,0.9c-0.9,0.6-1.8,1.3-2.7,2c-0.9,0.7-1.7,1.4-2.4,2c-0.7,0.6-1.2,0.9-1.6,0.9c-1.4,0-2.1-0.8-2.1-2.4 c0.4-1.8,0.7-3.3,0.9-4.5c0.3-1.2,0.5-2.4,0.8-3.6c0.3-1.2,0.4-2.2,0.4-3.1c0-1.4-0.4-3.1-1.2-5.1c-0.8-2-1.2-3.4-1.2-4.3 c0-1.1,0.7-2.8,2-5.2c1.3-2.4,2-4.1,2-5.2c0-2.1-0.4-3.6-1.2-4.4c-0.8-0.8-1.7-1.5-2.7-2c-1-0.5-1.9-1.3-2.7-2.4 c-0.8-1.1-1.2-3.1-1.2-6.1c0-0.9,0.2-2,0.7-3.3c0.4-1.3,1-2.7,1.6-4.1c0.6-1.4,1.2-2.8,1.6-4.3c0.4-1.4,0.7-2.7,0.7-3.7v-10.1 c0-3.6,0.3-7.2,0.8-10.9s1.2-7.2,1.9-10.3c0.7-3.1,1.3-5.8,1.9-8c0.5-2.2,0.8-3.6,0.8-4.1c0-1.4-0.2-3.1-0.5-4.9 c-0.4-1.9-0.8-3.6-1.3-5.2s-1.1-2.9-1.7-4c-0.6-1.1-1.1-1.6-1.5-1.6c-0.5,0-1.1,0.4-1.7,1.2c-0.6,0.8-1.1,1.2-1.5,1.2 c-1.2-0.2-1.9-1.5-1.9-4c0-1.4,0.3-3.6,0.8-6.5c0.5-2.9,1.1-6.2,1.7-9.7c0.6-3.6,1.2-7.2,1.7-10.8c0.5-3.6,0.8-6.9,0.8-9.7 c0-3.6-0.1-6.5-0.3-8.9c-0.2-2.4-0.3-4.8-0.3-7.1c0-3,1.1-6,3.2-8.8c2.1-2.8,5.2-4.3,9.3-4.3c0.7,0,1.8,0.1,3.2,0.4 c1.4,0.3,2.7,0.4,3.7,0.4c0.7,0,1.4-0.1,2-0.3c0.6-0.2,1.4-0.3,2.3-0.3c1.6,0,2.8,0.5,3.7,1.6c0.9,1.1,1.6,2.4,2.1,4.1 c0.5,1.7,0.8,3.5,0.9,5.3c0.1,1.9,0.1,3.6,0.1,5.2c0,4.6,0.3,8.4,0.9,11.5c0.6,3,1.3,5.5,2.1,7.5c0.8,2,1.5,3.7,2.1,5.2 c0.6,1.5,0.9,3.2,0.9,4.9c0,1.2-0.4,2-1.1,2.1c-0.7,0.2-1.5,0.4-2.3,0.8c-0.8,0.4-1.5,1.2-2.1,2.5c-0.6,1.3-0.9,3.7-0.9,7.1 c0,4.3,0.7,7.8,2,10.7c1.3,2.8,3.4,4.3,6.3,4.3c0.7,0,1.5-0.1,2.3-0.4c0.8-0.3,1.6-0.4,2.5-0.4c1.8,0,3.8,0.4,6.1,1.1 c2.3,0.7,3.4,1.1,3.2,1.1c1.2,0,2-0.9,2.4-2.7c0-0.4-0.3-1.7-0.9-4.1c-0.6-2.4-0.9-4.3-0.9-5.7v-13.6c0-7.5,0-12.5-0.1-15.2 c-0.1-2.7-0.1-4.5-0.1-5.6c0-2,0.4-4.3,1.1-7.1c0.7-2.8,1.1-4.8,1.1-6c0-2.3-0.7-4-2-5.1c-1.3-1.1-2-2-2-2.9c0-2,1.2-3.6,3.7-5.1 c2.5-1.4,5.2-2.1,8-2.1c3.7,0,6.5,0.2,8.4,0.5c1.9,0.4,3.2,0.5,4.1,0.5c0.5,0,1.6-0.3,3.3-0.8c1.7-0.5,2.8-0.8,3.3-0.8 c3.4,0.7,5.5,3.3,6.3,7.7c0.8,4.4,1.2,9.9,1.2,16.3c0,2.5-0.1,5.5-0.4,8.9c-0.3,3.5-0.8,6-1.5,7.6l-2.4,5.3c-0.7,2-1.1,4.4-1.1,7.5 c0,2.3,0.2,4.8,0.7,7.6c0.4,2.8,0.9,5.4,1.5,8c0.5,2.6,1,4.8,1.5,6.7c0.4,1.9,0.7,3.2,0.7,3.9v3.7c0,3.7,0.2,6.7,0.5,8.9 c0.4,2.2,0.5,3.6,0.5,4.1c0,1.8-0.3,3.9-0.9,6.3c-0.6,2.4-0.9,4.4-0.9,6c0,1.6,0.5,3.6,1.5,6.1c1,2.5,1.5,4.3,1.5,5.3L831,288.2z M928.9,329.8c0,1.4-0.4,3.1-1.2,4.9c-0.8,1.9-1.2,3.4-1.2,4.7c0,0.7,0.1,1.8,0.3,3.3c0.2,1.5,0.3,3.2,0.3,5.2c0,3-1.3,4.5-4,4.5 c-0.5,0-1.4-0.1-2.5-0.4c-1.2-0.3-2.4-0.6-3.7-0.9c-1.3-0.4-2.7-0.7-4-0.9c-1.3-0.3-2.4-0.4-3.1-0.4c-1.6,0-2.9,0.5-4,1.6 c-1.1,1.1-1.6,2.4-1.6,4c0.4,2.3,0.9,4.1,1.7,5.5c0.8,1.3,1.2,3.8,1.2,7.3c0,1.1-0.1,1.8-0.4,2.3c-0.3,0.4-1,0.7-2.3,0.7 c-1.1,0-2-1-2.9-3.1c-0.9-2-1.8-4.3-2.7-6.8c-0.9-2.5-1.8-4.8-2.8-6.8c-1-2-2.1-3.1-3.3-3.1c-2,0-3.6,0.9-4.8,2.8 c-1.2,1.9-1.9,3.2-1.9,4.1c0,1.1,0.3,2,0.8,2.9c0.5,0.9,0.8,1.8,0.8,2.7c0,2.5-0.4,4.1-1.1,4.8c-0.7,0.7-1.6,1.1-2.7,1.1 c-2.1,0-3.7-0.8-4.7-2.5c-1-1.7-1.8-3.6-2.4-5.7c-0.6-2.1-1.2-4-1.7-5.7c-0.5-1.7-1.3-2.5-2.4-2.5c-0.4,0-1,0.7-1.9,2 c-0.9,1.3-2,2-3.2,2c-0.9,0-2.2-0.7-3.9-2c-1.7-1.3-3-2-3.9-2c-0.5,0-1.2,0.3-2.1,0.8c-0.9,0.5-1.6,0.8-2.1,0.8 c-1.2,0-2.1-0.5-2.5-1.5c-0.4-1-0.8-2.1-0.9-3.5c-0.2-1.3-0.2-2.7-0.1-4c0.1-1.3,0-2.3-0.1-2.8v-5.1c0-0.7,0-1.8,0.1-3.2 c0.1-1.4,0.1-2.6,0.1-3.5v-5.9c0-2.1,0.1-4.8,0.3-8c0.2-3.2,0.4-6.5,0.7-10c0.3-3.5,0.5-6.8,0.7-10c0.2-3.2,0.3-5.9,0.3-8 c0-1.6,0.2-3.3,0.5-5.2c0.4-1.9,0.8-3.6,1.2-5.2c0.4-1.6,0.8-3,1.2-4.1c0.4-1.2,0.5-1.9,0.5-2.3c0-2.5-1.3-3.7-4-3.7 c-0.5,0-1.2,0.1-1.9,0.4c-0.7,0.3-1.3,0.4-1.9,0.4c-1.1,0-1.7-0.5-2-1.6c-0.3-1.1-0.4-2-0.4-2.9c0-0.7,0-1.4,0.1-2.1 c0.1-0.7,0.4-1.7,0.9-2.9c1.6-2.8,2.6-6,3.1-9.6c0.4-3.6,0.7-6.8,0.7-9.9c0-4.6,0.6-8.7,1.7-12.1c1.2-3.5,1.7-6.9,1.7-10.3 c0-0.5-0.1-1.3-0.4-2.3c-0.3-1-0.6-2.1-0.9-3.3c-0.4-1.2-0.7-2.5-0.9-3.9c-0.3-1.3-0.4-2.4-0.4-3.3c0-1.4,0.1-3,0.3-4.8 c0.2-1.8,0.3-3.3,0.3-4.5c0-1.1-0.2-2.5-0.7-4.4c-0.4-1.9-0.7-3.5-0.7-4.9c0-0.7,0.1-1.5,0.4-2.4c0.3-0.9,0.4-1.7,0.4-2.4 c0-0.9-0.4-2-1.3-3.5c-0.9-1.4-1.3-2.7-1.3-3.7c0-2.1,0.9-3.7,2.8-4.7c1.9-1,4.3-1.5,7.3-1.5c0.5,0,1.3,0,2.4,0.1 c1.1,0.1,2,0.1,2.9,0.1c2.5,0,4.3-0.4,5.3-1.2c1.1-0.8,2.6-1.2,4.5-1.2c1.2,0,2.5,0.4,3.7,1.2c1.2,0.8,2.3,1.2,3.2,1.2 c0.9,0,1.6-0.3,2.3-0.8c0.6-0.5,1.6-0.8,3.1-0.8c2,0,4,0.7,6.3,2.1c2.2,1.4,4.3,2.1,6.3,2.1c1.4,0,2.8-0.5,4.1-1.5 c1.3-1,3-1.5,4.9-1.5c1.4,0,2.5,0.2,3.2,0.7c0.7,0.4,1.5,0.7,2.4,0.7c0.9,0,1.8-0.3,2.7-0.9c0.9-0.6,2.3-0.9,4.3-0.9 c0.9,0,1.6,1,2.3,2.9c0.6,2,0.9,5.4,0.9,10.4c0,1.8,0.2,4.4,0.5,8c0.4,3.6,0.8,7.4,1.3,11.5c0.5,4.1,1,8.1,1.3,12.1 c0.4,4,0.5,7.2,0.5,9.5c0,3.4-1.8,5.1-5.3,5.1c-2.5,0-3.7-1.3-3.7-4c0-0.5,0-1.3,0.1-2.4c0.1-1.1,0.1-2.1,0.1-3.2 c0-1.1,0-2,0.1-2.9c0.1-0.9,0.1-1.4,0.1-1.6c0-4.6-0.2-8.7-0.5-12.1c-0.4-3.5-1-5.2-1.9-5.2c-1.2,0-2,0.9-2.1,2.8 c-0.2,1.9-0.3,3.9-0.4,6c-0.1,2.1-0.3,4.1-0.7,6c-0.4,1.9-1.2,2.8-2.4,2.8c-1.6,0-2.6-0.7-2.9-2.1c-0.7-3-1.2-5.2-1.6-6.5 c-0.4-1.3-0.7-2.4-1.1-3.1c-1.8-1.2-3.5-2.4-5.1-3.3c-1.6-1-3.2-1.5-4.8-1.5c-1.4,0-2.6,0.4-3.5,1.1c-0.9,0.7-1.6,1.5-2.3,2.3 c-0.6,0.8-1.2,1.6-1.7,2.3c-0.5,0.7-1.2,1.1-1.9,1.1c-0.9,0-1.6-0.1-2-0.3c-0.4-0.2-0.9-0.3-1.5-0.3c-3,0-5,1.4-5.9,4.1 c-0.9,2.8-1.3,6.2-1.3,10.3c0,3.9,0.5,7.4,1.6,10.5c1.1,3.1,2.4,5.7,3.9,7.9c1.5,2.1,3.1,3.7,4.7,4.8c1.6,1.1,2.9,1.6,4,1.6 c0.2,0,0.8-0.1,1.7-0.3c1-0.2,2-0.4,3.2-0.7c1.2-0.3,2.2-0.5,3.2-0.7c1-0.2,1.6-0.3,2-0.3c2-0.4,4.1-0.6,6.5-0.7 c2.4-0.1,4-0.1,4.7-0.1c1.4,0,2.5,0.6,3.3,1.9c0.8,1.2,1.2,2.8,1.2,4.8c0,0.9-0.4,2.3-1.2,4.3c-0.8,2-1.2,3.6-1.2,5.1 c0,1.4,0.3,3.2,0.8,5.5c0.5,2.2,1.1,4.5,1.7,6.8c0.6,2.3,1.2,4.5,1.7,6.5c0.5,2,0.8,3.6,0.8,4.7c0,2.5-0.8,5-2.3,7.6 c-1.5,2.6-2.9,3.9-4.1,3.9c-1.4,0-2.3-0.8-2.7-2.3c-0.4-1.5-0.7-3.2-0.9-5.1s-0.7-3.6-1.2-5.1c-0.5-1.5-1.6-2.3-3.2-2.3 c-1.4,0-2.3,0.5-2.7,1.6c-0.4,1.1-0.5,2.2-0.5,3.3c0,1.2-0.1,2.3-0.4,3.3s-0.9,1.6-2,1.6c-0.9,0-1.6-0.4-2.1-1.3 c-0.5-0.9-1.1-1.9-1.6-3.1c-0.5-1.2-1.1-2.2-1.6-3.1c-0.5-0.9-1.2-1.3-1.9-1.3c-0.9,0-1.8-0.2-2.8-0.5c-1-0.4-1.9-0.5-2.8-0.5 c-2.3,0-3.5,0.9-3.5,2.7c0,1.1,0.3,2.7,0.9,4.8c0.6,2.1,0.9,6.2,0.9,12.3c0,2-0.6,4.4-1.9,7.5c-1.2,3-1.9,5.2-1.9,6.7 c0,2.1,1.1,4.3,3.3,6.5c2.2,2.2,6.2,3.3,11.9,3.3c0.9,0,1.8,0,2.8-0.1c1-0.1,2.1-0.1,3.3-0.1c2,0,4.4,0.4,7.2,1.1 c2.8,0.7,5.2,1.1,6.9,1.1c0.5,0,1.1,0,1.7-0.1c0.6-0.1,1.3-0.1,2-0.1c2,0,3.8,0.9,5.6,2.7C928,326,928.9,327.9,928.9,329.8z"></path> </g> </svg> 